<svg width="56" height="56" viewBox="0 0 56 56" fill="none" xmlns="http://www.w3.org/2000/svg">
<path d="M28 51.3333C24.7722 51.3333 21.7388 50.7208 18.9 49.4958C16.0611 48.2708 13.5916 46.6083 11.4916 44.5083C9.39163 42.4083 7.72913 39.9388 6.50413 37.1C5.27913 34.2611 4.66663 31.2277 4.66663 28C4.66663 24.7722 5.27913 21.7388 6.50413 18.9C7.72913 16.0611 9.39163 13.5916 11.4916 11.4916C13.5916 9.39163 16.0611 7.72913 18.9 6.50413C21.7388 5.27913 24.7722 4.66663 28 4.66663C31.2277 4.66663 34.2611 5.27913 37.1 6.50413C39.9388 7.72913 42.4083 9.39163 44.5083 11.4916C46.6083 13.5916 48.2708 16.0611 49.4958 18.9C50.7208 21.7388 51.3333 24.7722 51.3333 28C51.3333 31.2277 50.7208 34.2611 49.4958 37.1C48.2708 39.9388 46.6083 42.4083 44.5083 44.5083C42.4083 46.6083 39.9388 48.2708 37.1 49.4958C34.2611 50.7208 31.2277 51.3333 28 51.3333ZM28 46.6666C33.2111 46.6666 37.625 44.8583 41.2416 41.2416C44.8583 37.625 46.6666 33.2111 46.6666 28C46.6666 22.7888 44.8583 18.375 41.2416 14.7583C37.625 11.1416 33.2111 9.33329 28 9.33329C22.7888 9.33329 18.375 11.1416 14.7583 14.7583C11.1416 18.375 9.33329 22.7888 9.33329 28C9.33329 33.2111 11.1416 37.625 14.7583 41.2416C18.375 44.8583 22.7888 46.6666 28 46.6666ZM27.9416 44.3333C28.4861 44.3333 28.9625 44.1291 29.3708 43.7208C29.7791 43.3125 29.9833 42.8361 29.9833 42.2916V41.4166C31.9277 41.0666 33.6 40.3083 35 39.1416C36.4 37.975 37.1 36.2444 37.1 33.95C37.1 32.3166 36.6333 30.8194 35.7 29.4583C34.7666 28.0972 32.9 26.9111 30.1 25.9C27.7666 25.1222 26.1527 24.4416 25.2583 23.8583C24.3638 23.275 23.9166 22.4777 23.9166 21.4666C23.9166 20.4555 24.2763 19.6583 24.9958 19.075C25.7152 18.4916 26.7555 18.2 28.1166 18.2C28.8944 18.2 29.575 18.3361 30.1583 18.6083C30.7416 18.8805 31.2277 19.25 31.6166 19.7166C32.0055 20.1833 32.443 20.5041 32.9291 20.6791C33.4152 20.8541 33.8722 20.8444 34.3 20.65C34.8833 20.4166 35.2819 20.018 35.4958 19.4541C35.7097 18.8902 35.6611 18.375 35.35 17.9083C34.7277 17.0138 33.9597 16.2555 33.0458 15.6333C32.1319 15.0111 31.15 14.6611 30.1 14.5833V13.7083C30.1 13.1638 29.8958 12.6875 29.4875 12.2791C29.0791 11.8708 28.6027 11.6666 28.0583 11.6666C27.5138 11.6666 27.0375 11.8708 26.6291 12.2791C26.2208 12.6875 26.0166 13.1638 26.0166 13.7083V14.5833C24.0722 15.0111 22.5555 15.8666 21.4666 17.15C20.3777 18.4333 19.8333 19.8722 19.8333 21.4666C19.8333 23.2944 20.368 24.7722 21.4375 25.9C22.5069 27.0277 24.1888 28 26.4833 28.8166C28.9333 29.7111 30.6347 30.5083 31.5875 31.2083C32.5402 31.9083 33.0166 32.8222 33.0166 33.95C33.0166 35.2333 32.5597 36.1763 31.6458 36.7791C30.7319 37.3819 29.6333 37.6833 28.35 37.6833C27.3388 37.6833 26.425 37.4402 25.6083 36.9541C24.7916 36.468 24.1111 35.7388 23.5666 34.7666C23.2555 34.2222 22.8472 33.8527 22.3416 33.6583C21.8361 33.4638 21.3305 33.4638 20.825 33.6583C20.2805 33.8527 19.8819 34.2222 19.6291 34.7666C19.3763 35.3111 19.3666 35.8361 19.6 36.3416C20.2222 37.6638 21.0583 38.743 22.1083 39.5791C23.1583 40.4152 24.4222 40.9888 25.9 41.3V42.2916C25.9 42.8361 26.1041 43.3125 26.5125 43.7208C26.9208 44.1291 27.3972 44.3333 27.9416 44.3333Z" fill="#201A1B"/>
</svg>
