<svg width="56" height="56" viewBox="0 0 56 56" fill="none" xmlns="http://www.w3.org/2000/svg">
<path d="M11.6666 9.33337H44.3332C44.9943 9.33337 45.5485 9.55699 45.9957 10.0042C46.4429 10.4514 46.6666 11.0056 46.6666 11.6667C46.6666 12.3278 46.4429 12.882 45.9957 13.3292C45.5485 13.7764 44.9943 14 44.3332 14H11.6666C11.0054 14 10.4513 13.7764 10.0041 13.3292C9.55683 12.882 9.33322 12.3278 9.33322 11.6667C9.33322 11.0056 9.55683 10.4514 10.0041 10.0042C10.4513 9.55699 11.0054 9.33337 11.6666 9.33337ZM11.6666 46.6667C11.0054 46.6667 10.4513 46.4431 10.0041 45.9959C9.55683 45.5487 9.33322 44.9945 9.33322 44.3334V32.6667H8.92489C8.186 32.6667 7.58322 32.3848 7.11655 31.8209C6.64989 31.257 6.49433 30.6056 6.64989 29.8667L8.98322 18.2C9.09989 17.6556 9.37211 17.2084 9.79989 16.8584C10.2277 16.5084 10.7138 16.3334 11.2582 16.3334H44.7416C45.286 16.3334 45.7721 16.5084 46.1999 16.8584C46.6277 17.2084 46.8999 17.6556 47.0166 18.2L49.3499 29.8667C49.5054 30.6056 49.3499 31.257 48.8832 31.8209C48.4166 32.3848 47.8138 32.6667 47.0749 32.6667H46.6666V44.3334C46.6666 44.9945 46.4429 45.5487 45.9957 45.9959C45.5485 46.4431 44.9943 46.6667 44.3332 46.6667C43.6721 46.6667 43.1179 46.4431 42.6707 45.9959C42.2235 45.5487 41.9999 44.9945 41.9999 44.3334V32.6667H32.6666V44.3334C32.6666 44.9945 32.4429 45.5487 31.9957 45.9959C31.5485 46.4431 30.9943 46.6667 30.3332 46.6667H11.6666ZM13.9999 42H27.9999V32.6667H13.9999V42ZM11.7832 28H44.2166L42.8166 21H13.1832L11.7832 28Z" fill="#201A1B"/>
</svg>
