<svg width="354" height="110" viewBox="0 0 354 110" fill="none" xmlns="http://www.w3.org/2000/svg">
<g clip-path="url(#clip0_2317_66)">
<path d="M162.123 62.6933C164.315 63.1826 166.324 63.4196 168.18 64.1077C170.106 64.8033 171.924 65.7672 173.58 66.971C175.593 68.4772 176.376 70.5606 175.383 73.1486C174.008 76.742 172.801 80.4118 171.484 84.009C171.201 84.7736 170.945 85.7675 169.761 85.4502C168.658 85.1521 167.783 84.5328 167.756 83.2445C167.73 81.7689 167.844 80.2895 167.756 78.8177C167.512 74.5324 166.156 70.7058 162.628 68.0108C157.72 64.2645 150.086 66.2408 147.497 71.9979C143.804 80.2016 146.096 95.7449 158.137 100.871C164.083 103.402 169.853 102.783 175.058 98.6732C175.277 98.5369 175.521 98.4459 175.776 98.4056C175.994 98.3563 176.214 98.3206 176.437 98.2985C176.364 96.7694 176.204 95.3206 176.242 93.8641C176.41 87.4151 179.583 82.7781 185.262 80.0257C191.693 76.8949 198.246 76.8452 204.548 80.4462C210.009 83.5694 212.185 88.5925 211.708 94.7204C211.261 100.6 208.202 104.881 203.001 107.538C197.192 110.505 191.162 110.837 185.09 108.391C181.936 107.121 179.371 104.713 177.903 101.643C177.689 101.219 177.41 100.822 177.063 100.244C175.577 103.276 173.091 105.011 170.46 106.514C160.89 111.976 148.658 110.956 141.108 103.073C136.35 98.1036 134.654 92.0789 135.128 85.3126C135.678 77.4415 139.405 71.4245 145.729 66.8984C146.468 66.3969 147.246 65.9547 148.055 65.5757C148.893 65.2281 149.692 64.7911 150.438 64.2721C149.892 64.1574 149.345 64.0198 148.796 63.9357C145 63.3623 141.314 62.506 138.294 59.9218C136.25 58.1748 135.911 56.7222 136.766 54.1877C137.782 51.1792 138.714 48.1401 139.714 45.1277C139.84 44.7455 140.226 44.1071 140.379 44.1376C140.852 44.2332 141.501 44.5199 141.654 44.8754C141.933 45.6189 142.062 46.4099 142.036 47.2035C141.994 50.3611 142.17 53.4881 143.483 56.4125C144.667 59.0502 146.741 60.7017 149.628 61.0342C151.404 61.2492 153.199 61.2492 154.974 61.0342C159.939 60.392 162.333 55.3001 159.939 50.9001C158.366 48.0063 155.712 46.3395 153.122 44.5773C150.273 42.6391 147.371 40.7774 144.572 38.7705C143.371 37.838 142.242 36.8156 141.196 35.7123C135.918 30.5477 137.992 23.3724 143.514 20.1727C149.036 16.9731 155.097 16.3117 161.291 17.5197C163.735 18.0021 166.105 18.8082 168.337 19.9166C171.174 21.3234 171.571 22.8945 170.59 25.9222C169.773 28.4337 169.062 30.9759 168.207 33.4721C168.016 34.0264 167.397 34.8369 166.977 34.833C165.942 34.833 165.507 33.9117 165.45 32.9522C165.392 31.9927 165.488 30.9835 165.492 29.9972C165.561 27.7973 165.085 25.6145 164.105 23.6438C163.009 21.526 161.257 20.2721 158.942 20.0389C157.164 19.8267 155.365 19.8588 153.596 20.1345C149.662 20.8494 147.89 25.2991 150.388 28.4261C151.751 30.131 153.619 31.4843 155.421 32.7764C158.912 35.2726 162.544 37.574 166.065 40.0396C166.993 40.7415 167.838 41.5484 168.581 42.4441C174.691 49.3251 172.232 58.9891 163.586 62.1428L162.123 62.6933ZM185.419 89.5368C185.896 91.5131 186.251 93.8259 187.019 95.9934C188.325 99.6786 190.315 102.989 193.717 105.168C197.441 107.542 201.794 105.382 202.222 100.994C202.528 98.1175 202.146 95.2098 201.107 92.5109C199.74 88.9557 198.01 85.6567 195.088 83.1145C191.613 80.0831 187.607 81.7039 186.389 84.5634C185.793 85.9663 185.778 87.6101 185.43 89.5176L185.419 89.5368Z" fill="#FFD9E1"/>
<path d="M6.9809 67.2806C7.88215 63.0373 8.6383 58.7558 9.71522 54.5585C10.8914 49.9711 12.3655 45.4526 13.7098 40.9035L13.9962 39.9096C13.4408 39.833 12.89 39.7258 12.3464 39.5885C11.9951 39.4815 11.3879 39.1795 11.4108 39.061C11.5087 38.5572 11.7276 38.0849 12.0486 37.6848C12.1402 37.5777 12.778 37.7727 13.0415 37.9791C14.0993 38.824 14.3857 38.7437 14.9509 37.4745C15.5505 36.1251 16.2379 34.7986 16.8604 33.4797C17.0971 32.9713 17.2614 32.4285 17.4676 31.8742C16.8668 31.7397 16.2819 31.5424 15.7223 31.2855C15.5461 31.175 15.3948 31.0288 15.2784 30.8563C15.162 30.6838 15.083 30.4888 15.0464 30.2839C15.0464 29.9972 15.4283 29.5499 15.7453 29.4314C15.9243 29.4001 16.1078 29.4066 16.2841 29.4508C16.4604 29.4949 16.6255 29.5756 16.7687 29.6876C18.155 30.7503 18.2963 30.7159 19.1441 29.225C20.0377 27.6271 20.9619 26.0406 21.9357 24.4848C22.4551 23.6591 22.2221 23.3035 21.3667 23.036C20.9239 22.9293 20.5346 22.6659 20.2706 22.2943C20.1637 22.0688 20.6793 21.2431 20.7977 21.2698C21.3186 21.3934 21.8079 21.6252 22.2336 21.9503C22.4512 22.1032 22.52 22.4664 22.7988 23.0092L26.7322 18.5557C26.969 18.2881 27.1828 17.9976 27.4273 17.7338C28.7333 16.3079 28.7219 16.3232 27.1905 15.0578C26.9804 14.8858 26.8086 14.2933 26.9155 14.1863C27.293 13.8293 27.7403 13.5547 28.2292 13.3797C28.3591 13.3338 28.76 13.6893 28.8364 13.9225C28.9607 14.4989 29.0386 15.0844 29.0694 15.6733C30.215 14.8629 31.1659 14.236 32.0748 13.567C33.3007 12.6648 34.4998 11.732 35.7143 10.8108C36.8599 9.94299 36.8828 9.59894 35.9739 8.45212C35.7881 8.13126 35.6504 7.78477 35.5653 7.42379C36.0083 7.26324 36.4666 6.95741 36.8943 6.99564C37.1311 7.01476 37.4404 7.58817 37.5015 7.95133C37.7077 9.19755 37.9368 9.30841 39.0291 8.76176C41.1944 7.69903 43.3864 6.69364 45.8229 5.54299L44.555 3.44047C44.6696 3.30285 44.8872 2.80207 45.2309 2.67592C45.5746 2.54977 46.2315 2.89382 46.2773 3.11936C46.3642 3.88844 46.3808 4.66385 46.327 5.43596C46.5668 5.4637 46.8089 5.4637 47.0487 5.43596C49.3783 4.80138 51.6887 4.07505 54.0411 3.52457C55.3395 3.2264 55.8475 2.76002 55.2784 1.43352C55.2242 1.27938 55.2081 1.11438 55.2313 0.952628C55.2546 0.790872 55.3166 0.637154 55.4121 0.504591C55.5623 0.383381 55.7374 0.296885 55.9249 0.251287C56.1124 0.205689 56.3076 0.202115 56.4967 0.240821C56.7602 0.347858 56.8786 0.84864 57.0313 1.19269C57.081 1.2959 57.0313 1.45646 57.0008 1.57496C56.7945 2.64916 57.2184 2.98939 58.3106 2.93969C60.8579 2.82883 63.4127 2.84794 65.9484 2.79443C66.4466 2.75705 66.9425 2.69325 67.434 2.60329C67.1667 2.07192 66.8802 1.74317 66.8573 1.39529C66.8306 0.974791 66.8955 0.355503 67.1667 0.160543C67.3662 0.0487531 67.5895 -0.0137302 67.818 -0.0217092C68.0465 -0.0296881 68.2736 0.0170681 68.4804 0.114669C68.7019 0.252289 68.6942 0.936563 68.6178 1.3456C68.466 1.89013 68.2653 2.41983 68.0183 2.92822L78.0925 5.35185C78.0546 4.69065 78.0648 4.02756 78.1231 3.36784C78.1727 3.04291 78.5661 2.49243 78.715 2.51919C79.1682 2.62056 79.5822 2.85166 79.9065 3.18435C79.9981 3.27609 79.685 3.81128 79.5246 4.11328C79.2764 4.54143 78.7608 4.94282 78.7608 5.35568C78.7608 5.64621 79.3909 5.99026 79.7919 6.20815C81.9954 7.39321 84.2371 8.50181 86.4292 9.7251C87.7543 10.4591 87.8001 10.4514 88.1095 8.93761C88.1744 8.61649 88.7014 8.10807 88.9305 8.15012C89.4429 8.28491 89.9081 8.55875 90.2748 8.94143C90.3512 9.01406 90.0151 9.63717 89.7631 9.91241C89.3785 10.2497 88.9644 10.5516 88.5257 10.8146C89.4232 11.7129 90.1946 12.4966 90.9775 13.265C92.0277 14.3048 93.0626 15.3637 94.1586 16.3538C94.7391 16.8737 95.4112 17.4165 95.816 16.0785C95.9535 15.6274 96.4729 15.314 97.0342 14.6756C97.4161 15.3866 97.756 15.8797 97.8782 16.4226C97.9049 16.5487 97.1603 16.8966 96.7325 17.0572C95.9688 17.3439 95.732 17.7338 96.2284 18.4716C97.5231 20.383 98.8635 22.2943 100.047 24.2975C101.403 26.5911 102.621 28.9459 103.897 31.274C104.122 31.6907 104.328 32.115 104.619 32.6808C105.048 32.1642 105.507 31.6728 105.993 31.209C106.245 30.9911 106.872 30.7694 106.925 30.8267C107.243 31.2329 107.46 31.7084 107.559 32.2144C107.59 32.4208 107.143 32.8375 106.849 32.914C106.228 33.0186 105.599 33.0672 104.97 33.0592C105.68 35.1694 106.329 37.0961 106.982 39.0189C107.066 39.2712 107.173 39.5197 107.254 39.7835C107.765 41.3852 107.853 41.3967 109.186 40.3645C109.48 40.139 110.164 39.9249 110.271 40.0511C110.603 40.4332 110.802 40.9139 110.836 41.4196C110.836 41.6337 110.244 41.9969 109.885 42.0542C108.162 42.3256 108.163 42.295 108.628 44.0726C109.213 46.3166 109.774 48.5644 110.381 50.8083C110.521 51.2264 110.684 51.6361 110.87 52.0354L113.242 50.5522C113.478 51.3168 113.925 52.3642 113.803 52.433C113.039 52.8764 112.157 53.102 111.05 53.4881C111.523 56.229 112.042 59.2222 112.596 62.4525C113.136 62.2295 113.69 62.0417 114.254 61.8905C114.636 61.8141 115.235 61.7758 115.373 61.9746C115.497 62.17 115.581 62.3885 115.619 62.6171C115.657 62.8457 115.649 63.0797 115.594 63.3049C115.51 63.5764 114.941 63.8631 114.594 63.8592C112.764 63.8401 112.783 63.8095 112.99 65.5986C113.211 67.51 113.417 69.4214 113.574 71.3327C113.646 72.2464 114.024 72.426 114.792 72.0399C115.071 71.8985 115.353 71.6309 115.625 71.6577C116.043 71.6555 116.449 71.8018 116.77 72.0705C116.875 72.2255 116.94 72.4043 116.958 72.5907C116.976 72.777 116.947 72.9648 116.873 73.1371C116.746 73.3053 116.585 73.4448 116.4 73.5462C116.215 73.6477 116.01 73.7089 115.8 73.7258C115.25 73.7258 114.704 73.4697 114.002 73.2823C114.002 74.261 113.952 75.0943 114.002 75.9201C114.326 80.6068 114.678 85.2896 115.021 89.9725C115.043 90.3749 115.087 90.7757 115.155 91.1729C115.315 91.9833 115.777 92.2853 116.484 91.7539C117.068 91.3143 117.672 90.9129 118.229 91.5857C118.466 91.8763 118.439 92.8434 118.305 92.8931C117.687 93.0856 117.043 93.1835 116.396 93.1836C116.159 93.1836 115.911 93.0269 115.357 92.832C115.502 95.397 115.636 97.7633 115.777 100.283C116.419 100.256 116.923 100.21 117.458 100.218C117.84 100.218 118.561 100.218 118.603 100.359C118.787 100.893 118.801 101.471 118.645 102.014C118.569 102.221 117.775 102.24 117.32 102.202C116.835 102.099 116.363 101.944 115.911 101.739V109.293H109.961C109.934 108.792 109.885 108.36 109.889 107.928C109.897 97.6201 109.259 87.3217 107.979 77.0936C107.005 69.1538 105.917 61.1718 104.034 53.4116C101.342 42.3027 96.7784 32.0042 88.3081 23.8273C82.1062 17.8446 74.6708 14.5953 66.1432 13.7619C57.5626 12.8834 48.9263 14.7748 41.4961 19.1597C33.442 23.8426 27.5838 30.5821 23.3219 38.8125C20.0877 44.9522 17.6041 51.4595 15.9247 58.1939C13.7144 67.0066 12.0235 75.9418 10.8609 84.9532C10.0551 91.5284 9.60829 98.1456 9.00491 104.748C8.89798 105.948 8.87125 107.163 8.68412 108.352C8.62717 108.553 8.52127 108.736 8.37594 108.886C8.23061 109.035 8.05042 109.146 7.8516 109.209C6.42334 109.312 4.98743 109.258 3.55535 109.297C2.79157 109.32 2.61972 108.914 2.677 108.287C2.77629 107.263 2.91377 106.238 2.97106 105.229C2.97026 104.556 2.93457 103.884 2.86413 103.215C2.2111 103.597 1.81775 103.979 1.39003 104.033C1.16019 104.059 0.927306 104.034 0.708538 103.959C0.489771 103.883 0.290696 103.76 0.125981 103.597C0.0304555 103.387 -0.0112002 103.157 0.00480817 102.928C0.0208165 102.698 0.09398 102.476 0.217634 102.282C0.412398 102.049 1.11126 102.033 1.48169 102.182C2.94051 102.763 3.18873 102.599 3.34149 100.776C3.72338 96.1348 4.01743 91.4825 4.54826 86.857C5.25094 80.7214 6.14838 74.605 6.95416 68.481C7.00381 68.0987 6.99235 67.6782 7.01145 67.2768L6.9809 67.2806Z" fill="#FFD9E1"/>
<path d="M95.9993 52.4866C95.5293 52.8713 95.097 53.3001 94.7086 53.7672C94.6475 53.8551 95.1554 54.5853 95.3654 54.57C95.7206 54.5432 96.0452 54.1533 96.4882 53.8475C97.1908 56.2367 98.0157 58.6412 98.5962 61.1107C99.7762 66.3403 101.036 71.566 101.842 76.8567C102.854 83.4815 103.477 90.1675 104.202 96.8344C104.584 100.478 104.821 104.144 105.199 107.79C105.314 108.911 105.012 109.35 103.866 109.32C101.544 109.27 99.2187 109.32 96.6562 109.32L95.8351 100.527L96.1903 100.665L97.4161 99.518L95.7473 98.7114C95.3654 94.8313 94.9835 90.5651 94.5023 86.3065C93.6714 78.9189 92.3561 71.594 90.5651 64.3792C88.8847 57.4982 86.4941 50.9536 82.8089 44.8831C79.8034 39.9517 76.3435 35.4409 71.44 32.1877C67.0903 29.3053 62.3473 28.6899 57.3101 29.3359C51.9637 30.0202 47.7056 32.7764 43.8103 36.2628C38.2882 41.2323 34.6832 47.4252 31.945 54.2297C28.6913 62.3111 26.4993 70.7211 24.9145 79.2344C23.5473 86.6162 22.6498 94.0897 21.634 101.536C21.3782 103.39 21.4851 105.294 21.3896 107.171C21.2941 109.048 20.9123 109.331 19.0945 109.331C17.5287 109.331 15.963 109.331 14.3934 109.331C13.305 109.331 12.8658 108.949 12.8277 107.729C12.5985 98.5547 14.1566 89.6018 15.8828 80.6794C17.2003 73.9208 18.8157 67.208 20.5915 60.5526C22.6651 52.7771 25.6515 45.3418 30.2074 38.6443C34.9047 31.7634 40.6865 25.9528 48.4885 22.7149C55.1155 19.8937 62.5326 19.5411 69.3969 21.721C76.3244 23.8541 81.4455 28.384 85.8754 33.8812C89.5465 38.515 92.4963 43.6781 94.6245 49.1952C95.0904 50.3611 95.5869 51.5003 95.9993 52.4866ZM48.8475 27.069L47.8087 27.9865C48.1639 28.3076 48.4808 28.8122 48.8818 28.8886C49.1568 28.9422 49.5501 28.407 49.89 28.1241L48.8475 27.069ZM19.8926 73.3971L20.8511 72.2502C20.4729 71.9535 20.0646 71.6972 19.6329 71.4857C19.5336 71.4436 19.0295 71.9597 19.0754 72.1203C19.1785 72.4949 19.4993 72.8122 19.8926 73.3971ZM81.098 36.6374C80.6054 36.3277 80.2311 35.934 80.0402 36.0105C79.6583 36.1557 79.3871 36.5609 79.0664 36.8629C79.3871 37.1152 79.7118 37.5663 80.0287 37.5663C80.3457 37.5663 80.6207 37.0808 81.098 36.6374ZM97.9393 105.654C98.348 105.065 98.7031 104.755 98.7566 104.407C98.791 104.121 98.4473 103.788 98.2678 103.475C97.9241 103.761 97.4391 103.991 97.2901 104.358C97.1947 104.587 97.6033 105.023 97.9393 105.654ZM50.2605 22.9901L49.7334 22.8296C49.0537 23.0589 48.4999 23.4183 48.8895 24.2593C48.9849 24.4619 49.447 24.4963 49.7411 24.6072L50.2605 22.9901ZM34.8894 39.2675C34.4082 38.8852 34.076 38.4532 33.95 38.5029C33.5378 38.7363 33.1534 39.0159 32.8043 39.3363C33.0334 39.5542 33.2893 39.9708 33.4764 39.9403C33.8736 39.8867 34.244 39.5962 34.8894 39.2675ZM97.5804 87.3387C97.1985 87.7592 96.786 88.0841 96.8395 88.2141C97.0466 88.5991 97.3034 88.9551 97.6033 89.273C97.8286 88.9787 98.2067 88.7034 98.2334 88.3938C98.2601 88.0841 97.905 87.8204 97.5804 87.3387ZM101.109 83.665C100.8 84.4678 100.532 84.873 100.532 85.282C100.532 85.5229 100.945 85.7675 101.174 86.0122C101.416 85.6423 101.606 85.241 101.739 84.8195C101.781 84.5939 101.472 84.3034 101.109 83.665ZM81.1438 31.0523C80.6703 30.6701 80.3801 30.2878 80.1204 30.2878C79.8607 30.2878 79.5437 30.6892 79.2573 30.9147C79.5208 31.2091 79.7461 31.641 80.0707 31.7443C80.2808 31.8169 80.6436 31.3964 81.1438 31.0523ZM16.3028 98.9102C15.8446 98.612 15.5391 98.2489 15.3443 98.31C14.9972 98.504 14.6859 98.7562 14.424 99.0555C14.6569 99.3154 14.9624 99.82 15.119 99.7818C15.4818 99.6862 15.7758 99.3269 16.3028 98.9102ZM16.0584 108.226C15.5811 107.775 15.2679 107.271 15.0044 107.294C14.7409 107.316 14.3247 107.775 14.2025 108.123C14.1414 108.295 14.5843 108.865 14.7944 108.857C15.1534 108.849 15.4971 108.528 16.0584 108.226ZM96.9999 70.1095C97.3764 69.691 97.7126 69.2379 98.0043 68.7562C98.0501 68.6568 97.546 68.1178 97.4352 68.1599C97.0522 68.2745 96.7238 68.5245 96.5111 68.8633C96.408 69.085 96.7326 69.4979 96.9999 70.1095ZM33.7055 46.6377C34.1103 46.0567 34.4197 45.7509 34.5304 45.38C34.5686 45.2501 33.9996 44.7569 33.9309 44.799C33.589 44.9881 33.3092 45.2723 33.1251 45.6171C33.0563 45.7776 33.4 46.1217 33.7055 46.6377ZM25.6859 59.723L25.2314 60.3423C25.58 60.6482 25.9544 60.9231 26.3504 61.1642C26.4 61.191 26.7322 60.717 26.9308 60.4761L25.6859 59.723ZM22.9134 57.2688L23.4862 57.7314L24.5975 56.5846C24.356 56.3893 24.1007 56.2117 23.8337 56.0532C23.5017 56.4387 23.1943 56.8447 22.9134 57.2688ZM40.4803 36.9203L40.7285 37.6848C41.2173 37.5243 41.7099 37.3752 42.1797 37.1688C42.1168 36.9092 42.0377 36.6538 41.9429 36.4042L40.4803 36.9203ZM61.1443 26.4421L60.6937 26.9811L61.7973 28.0324C61.9386 27.7686 62.2671 27.3443 62.1792 27.2678C61.8639 26.9541 61.5142 26.6771 61.1367 26.4421H61.1443ZM20.8702 100.76C20.3127 100.497 19.9652 100.191 19.7628 100.271C19.4229 100.397 19.1747 100.768 18.8882 101.036C19.125 101.234 19.4152 101.64 19.5909 101.594C19.9613 101.502 20.2745 101.173 20.8702 100.76ZM74.6937 25.6125L74.1591 26.1401L75.2666 27.4398C75.4575 27.2334 75.8356 26.8817 75.805 26.8435C75.457 26.4135 75.086 26.0026 74.6937 25.6125ZM96.5836 74.2687C96.2017 74.8765 95.8962 75.1938 95.8199 75.5646C95.7893 75.7137 96.3583 76.1877 96.4576 76.1342C96.7819 75.9764 97.0362 75.7041 97.1717 75.3696C97.2252 75.125 96.8968 74.8039 96.5836 74.2534V74.2687ZM63.4967 22.9022C63.8069 22.5501 64.0783 22.1656 64.3063 21.7554C64.3445 21.656 63.8404 21.1896 63.7641 21.2317C63.4048 21.4188 63.0886 21.6793 62.8361 21.9962C62.7864 22.0688 63.1607 22.4549 63.4967 22.9022ZM99.2492 64.4136C99.1652 64.1842 99.085 63.9548 99.0048 63.7255L97.5384 64.0734C97.6262 64.3906 97.7178 64.7079 97.8095 65.0252L99.2492 64.4136ZM29.0236 51.9896L29.5659 52.2992C29.7148 51.9437 29.9783 51.5882 29.9707 51.2403C29.9707 50.9995 29.5888 50.7663 29.3711 50.5331C29.0764 50.7958 28.8078 51.0864 28.5691 51.4009C28.5271 51.4735 28.867 51.787 29.0236 51.9896ZM19.7628 93.3863L19.2014 92.8626C18.8713 93.1962 18.565 93.5526 18.2849 93.9291C18.2505 93.9788 18.6209 94.3114 18.8042 94.4949L19.7628 93.3863ZM56.4929 22.1721C55.8895 21.8892 55.5687 21.6101 55.3472 21.6636C55.0455 21.7363 54.8088 22.0841 54.5453 22.3135C54.7973 22.5046 55.0532 22.8525 55.309 22.8449C55.5916 22.8143 55.8895 22.5085 56.4929 22.1721ZM102.346 98.3635L101.838 98.4706C101.934 98.9025 101.934 99.4033 102.171 99.7397C102.289 99.9079 102.839 99.7703 103.534 99.7703L102.346 98.3635ZM90.6949 51.1371C90.1564 50.8313 89.8318 50.5025 89.6142 50.5599C89.301 50.644 89.0642 51.0148 88.7969 51.2671C89.0986 51.4582 89.3888 51.7679 89.7096 51.8023C89.9388 51.8252 90.2099 51.4812 90.6949 51.1371ZM101.77 77.4568C101.426 77.1854 101.113 76.849 101.04 76.8949C100.722 77.0642 100.467 77.3326 100.315 77.6595C100.265 77.82 100.697 78.122 100.907 78.3628L101.77 77.4568ZM19.2014 85.4846L18.8921 84.9304L18.1588 84.3378C17.9373 84.6131 17.5669 84.873 17.544 85.1635C17.5734 85.3246 17.6446 85.4752 17.7505 85.6C17.8564 85.7248 17.9933 85.8195 18.1474 85.8746C18.4682 85.9013 18.831 85.6299 19.1861 85.4808L19.2014 85.4846ZM94.7888 62.3569C94.3114 62.0588 94.025 61.73 93.7729 61.7682C93.6238 61.8217 93.4909 61.9127 93.3872 62.0326C93.2835 62.1525 93.2125 62.2971 93.181 62.4525C93.181 62.6972 93.6087 63.1788 93.7386 63.1444C94.0441 63.0756 94.2999 62.7354 94.7735 62.3531L94.7888 62.3569ZM16.3296 89.0092C16.0202 89.5291 15.7071 89.8197 15.7147 90.1064C15.7147 90.3166 16.2227 90.7333 16.3563 90.6798C16.5159 90.6116 16.6596 90.5107 16.7779 90.3836C16.8963 90.2566 16.9868 90.1061 17.0437 89.942C17.0895 89.7623 16.7 89.4527 16.3296 89.0092ZM73.2769 29.9781L72.559 30.8956C72.8072 31.0906 73.0516 31.427 73.3227 31.4423C73.5939 31.4575 73.9681 31.0867 73.9643 30.8956C73.9261 30.6395 73.5939 30.391 73.2769 29.9781ZM21.0994 66.0688L21.3018 66.6575L22.6804 66.3173L22.3902 65.4151L21.0994 66.0688ZM38.9527 34.0226C38.4066 33.6403 38.0935 33.3039 37.9178 33.3613C37.597 33.4683 37.3602 33.82 37.0929 34.0685C37.2991 34.252 37.5168 34.5922 37.7192 34.5846C38.0247 34.5807 38.3264 34.3323 38.9527 34.0226Z" fill="#FFD9E1"/>
<path d="M93.097 109.331C91.2869 109.331 89.5531 109.385 87.8231 109.281C87.5405 109.262 87.109 108.578 87.0593 108.169C86.6774 104.109 86.3337 100.046 86.0053 95.9819C85.1881 85.9548 83.7484 76.0424 80.5787 66.4511C78.4134 59.8988 75.6141 53.6639 71.0009 48.4306C69.5342 46.8041 67.8584 45.3798 66.0172 44.1949C62.2174 41.6987 57.0237 42.2835 52.8077 45.3418C47.2474 49.3748 43.3903 54.719 40.6369 60.9195C37.9866 66.8907 36.3979 73.1906 35.2026 79.5784C34.034 85.8274 33.008 92.1005 32.1246 98.3979C31.6701 101.628 31.609 104.916 31.4371 108.18C31.3951 109.04 31.1622 109.365 30.2609 109.327C28.6608 109.258 27.0531 109.308 25.2582 109.308C25.3269 107.978 25.3231 106.789 25.4644 105.615C26.2893 98.6311 27.0531 91.6392 28.0269 84.678C29.1993 76.2679 31.1049 68.0413 34.3662 60.1588C37.4214 52.7503 41.6718 46.1751 48.0493 41.2094C53.2316 37.1725 59.0745 35.6014 65.6163 37.2375C69.3511 38.1741 72.1733 40.4983 74.6747 43.2278C79.2382 48.1974 82.4003 54.05 84.8597 60.3155C87.8574 68.0462 89.8593 76.1275 90.8171 84.3645C91.5809 90.7218 92.0048 97.1249 92.5776 103.505C92.738 105.355 92.9061 107.217 93.097 109.331Z" fill="#FFD9E1"/>
<path d="M247.51 109.946C243.779 109.946 239.212 108.769 235.672 105.076C229.596 98.7457 230.478 87.7973 237.199 82.1396C243.92 76.4819 255.763 76.5737 261.804 81.6426C269.366 87.9846 268.785 100.676 260.597 106.2C256.989 108.65 253.051 109.813 247.51 109.946ZM240.686 88.9212C241.152 91.0199 241.45 92.9771 242.03 94.835C243.256 98.6769 245.085 102.201 248.419 104.682C250.382 106.139 252.547 106.594 254.839 105.447C257.13 104.3 257.722 102.106 257.798 99.8046C257.94 95.4619 256.408 91.5551 254.3 87.8623C252.983 85.5686 251.382 83.4508 248.973 82.1281C246.456 80.7596 243.172 81.6694 241.98 84.2651C241.308 85.7445 241.091 87.415 240.686 88.9365V88.9212Z" fill="#FFD9E1"/>
<path d="M204.555 52.6738C207.526 57.7237 215.156 59.4669 219.716 56.3513C220.35 55.9194 220.999 55.0898 221.797 55.969C222.5 56.7336 222.29 57.6396 221.733 58.4462C220.407 60.3576 218.551 61.5809 216.463 62.4601C210.375 65.0252 204.41 64.9411 198.792 61.233C193.064 57.4561 191.113 50.5713 192.969 44.13C196.184 32.9828 208.981 29.332 217.811 33.9882C222.275 36.3468 223.638 39.7223 222.359 44.3096C221.553 47.1996 219.304 48.9696 216.684 50.254C213.833 51.6788 210.704 52.4616 207.519 52.5477C206.602 52.5591 205.663 52.6203 204.555 52.6738ZM212.621 44.2637C212.319 41.4961 211.36 38.8163 209.039 36.7826C208.385 36.1863 207.582 35.7775 206.716 35.5993C205.849 35.4211 204.951 35.4801 204.115 35.7701C203.279 36.0601 202.537 36.5702 201.967 37.2469C201.396 37.9236 201.019 38.7418 200.874 39.6153C200.273 42.9401 200.758 46.3702 202.256 49.3977C202.436 49.78 203.073 50.2311 203.432 50.1814C205.411 49.91 207.438 49.6997 209.314 49.0651C211.334 48.377 212.571 46.7868 212.621 44.2714V44.2637Z" fill="#FFD9E1"/>
<path d="M256.106 52.6929C257.183 54.4307 258.744 55.8153 260.597 56.6763C264.416 58.4194 268.186 58.5876 271.802 56.0455C272.184 55.7894 272.978 55.6174 273.204 55.82C273.404 56.0166 273.556 56.257 273.647 56.5224C273.739 56.7877 273.767 57.0707 273.731 57.3491C273.53 58.1188 273.135 58.8243 272.585 59.3981C268.831 63.0909 264.16 64.3677 259.058 64.1307C251.982 63.8134 246.277 59.3713 244.516 52.9873C243.602 49.7008 243.748 46.2096 244.931 43.0105C246.114 39.8114 248.276 37.0675 251.108 35.1694C256.866 31.381 263.015 30.9644 269.232 33.8888C272.287 35.33 274.334 37.7383 274.387 41.4311C274.437 44.9748 272.745 47.4634 269.9 49.3174C266.904 51.2249 263.464 52.3221 259.918 52.5018C258.726 52.5744 257.535 52.6203 256.106 52.6929ZM252.192 41.9586L251.867 42.0427C252.498 44.4434 253.086 46.8594 253.8 49.2333C253.926 49.65 254.632 50.2273 254.991 50.1737C257.054 49.8832 259.169 49.65 261.102 48.9658C262.189 48.6236 263.105 47.8799 263.664 46.8858C264.223 45.8916 264.383 44.7217 264.111 43.6139C263.754 41.9197 263.164 40.2833 262.358 38.7513C261.021 36.3353 258.638 35.1465 256.63 35.5517C253.693 36.1633 252.112 38.434 252.192 41.9586Z" fill="#FFD9E1"/>
<path d="M308.987 98.7687C311.419 102.366 318.053 105.852 323.846 102.209C324.136 101.999 324.436 101.805 324.747 101.628C325.71 101.15 326.305 101.513 326.309 102.614C326.308 103.221 326.164 103.819 325.89 104.359C325.615 104.9 325.217 105.368 324.728 105.726C320.02 109.518 314.646 110.581 308.811 109.407C299.504 107.538 294.33 97.8627 297.557 88.9175C299.776 82.7667 306.271 77.8085 313.371 77.8812C316.888 77.9194 320.161 78.4049 323.239 80.3048C327.527 82.954 328.295 89.6973 324.808 93.1951C322.831 95.2291 320.313 96.6538 317.553 97.3008C314.742 97.9468 311.855 98.2871 308.987 98.7687ZM308.544 96.0087C309.945 95.7373 311.366 95.5461 312.745 95.1753C315.334 94.4758 317.079 92.4994 316.922 90.2554C316.705 87.1246 315.62 84.3378 313.05 82.3117C312.384 81.7824 311.591 81.4365 310.75 81.3082C309.909 81.18 309.049 81.2738 308.255 81.5805C307.461 81.8871 306.762 82.396 306.225 83.0566C305.688 83.7172 305.333 84.5068 305.195 85.347C304.629 88.474 305.08 91.4634 306.21 94.4146C306.657 95.5691 307.096 96.4177 308.544 96.0087Z" fill="#FFD9E1"/>
<path d="M340.286 109.996C335.952 109.763 332.152 109.308 328.7 107.32C326.542 106.089 326.153 105.329 326.79 102.962C327.195 101.452 327.686 99.9666 328.261 98.5127C328.478 97.9622 329.177 97.1288 329.498 97.1938C330.333 97.379 331.092 97.8136 331.675 98.44C332.057 98.8567 332.057 99.6939 332.057 100.351C332.274 104.878 335.257 107.496 339.652 106.976C342.532 106.636 343.815 104.182 342.108 101.85C341.027 100.374 339.507 99.174 338.052 98.0272C335.959 96.3566 333.634 94.969 331.614 93.2105C329.414 91.2991 327.795 89.0551 327.913 85.8173C328.012 82.9808 330.323 80.2016 333.641 79.0777C339.221 77.1855 344.823 77.5486 350.391 79.2039C350.815 79.3445 351.228 79.5184 351.625 79.7238C353.916 80.8706 354.179 81.5014 353.316 83.9518C352.885 85.175 352.553 86.4366 352.041 87.6254C351.804 88.1721 351.086 89.0437 350.872 88.9672C350.08 88.6688 349.37 88.1852 348.802 87.5566C348.501 87.2317 348.543 86.5436 348.516 86.0275C348.34 82.0786 343.972 79.3224 340.328 80.8783C338.942 81.467 338.285 83.1299 339.328 84.2805C340.905 86.0084 342.765 87.4955 344.586 88.9863C346.763 90.7639 349.215 92.2471 351.212 94.2006C354.802 97.7022 354.844 102.84 351.621 106.093C350.015 107.675 347.981 108.749 345.77 109.182C343.838 109.599 341.825 109.775 340.286 109.996Z" fill="#FFD9E1"/>
<path d="M221.584 108.949C218.91 108.949 216.214 108.975 213.526 108.926C213.026 108.926 212.529 108.589 212.029 108.406C212.323 107.752 212.586 107.083 212.922 106.456C213.003 106.307 213.304 106.242 213.533 106.227C215.496 106.101 216.184 104.801 216.398 103.1C216.533 102.17 216.609 101.233 216.623 100.294C216.549 91.9145 216.46 83.5337 216.356 75.1517C216.356 74.3451 216.222 73.5423 216.214 72.7357C216.239 72.1741 216.093 71.6181 215.797 71.1406C215.501 70.6631 215.067 70.2864 214.553 70.0598C214.236 69.903 213.835 69.7348 213.69 69.4558C213.415 68.9321 213.068 68.2745 213.182 67.7699C213.274 67.3877 213.984 66.9404 214.477 66.8563C217.364 66.3708 220.182 65.7095 222.752 64.2453C223.53 63.8088 224.28 63.3236 224.998 62.7927C225.697 62.2728 226.476 61.5312 227.224 62.2766C227.717 62.7659 227.934 63.7675 227.892 64.5168C227.656 68.8977 227.129 73.2709 227.033 77.6518C226.888 85.7637 226.972 93.8756 227.033 101.987C227.033 104.721 227.656 105.428 230.256 106.323C231.127 106.624 231.402 107.24 231.314 108.104C231.211 109.155 230.432 108.922 229.787 108.911C228.4 108.891 227.01 108.83 225.624 108.811C224.238 108.792 222.951 108.811 221.591 108.811L221.584 108.949Z" fill="#FFD9E1"/>
<path d="M283.045 83.2635C284.08 81.1419 285.42 79.3146 287.7 78.4736C291.408 77.1051 296.075 77.8352 297.35 82.1549C297.541 82.74 297.56 83.3671 297.408 83.9631C296.464 86.8493 295.445 89.7164 294.41 92.572C294.047 93.5773 292.035 93.6041 291.252 92.5376C290.845 91.9166 290.597 91.205 290.53 90.4656C290.396 89.3608 290.53 88.2255 290.408 87.1169C290.263 85.4884 288.949 83.9516 287.601 83.6993C286.815 83.5813 286.013 83.7438 285.335 84.1582C284.657 84.5727 284.147 85.2127 283.893 85.9662C283.234 87.764 282.822 89.6427 282.667 91.5513C282.461 94.9918 282.537 98.4322 282.571 101.896C282.598 104.728 283.167 105.436 285.833 106.334C286.703 106.628 287.158 107.179 287.02 108.157C286.868 109.243 286.058 108.888 285.458 108.891C279.91 108.926 274.357 108.949 268.808 108.93C268.38 108.93 267.662 108.639 267.578 108.333C267.28 107.416 267.704 106.422 268.632 106.334C271.665 105.99 272.069 103.891 272.1 101.51C272.134 97.1669 272.1 92.8243 272.1 88.4854C272.127 87.8066 271.945 87.1359 271.579 86.5637C271.213 85.9916 270.68 85.5456 270.053 85.2858C269.694 85.1214 269.24 84.9494 269.064 84.6435C268.751 84.0931 268.373 83.3935 268.483 82.8507C268.571 82.4416 269.335 82.0479 269.873 81.8797C272.761 80.9813 275.682 80.19 278.569 79.284C279.276 79.0623 279.852 78.4316 280.559 78.206C281.165 77.9877 281.828 77.9877 282.434 78.206C282.762 78.3704 282.896 79.1923 282.892 79.716C282.892 80.8628 282.743 82.0097 282.655 83.1259L283.045 83.2635Z" fill="#FFD9E1"/>
<path d="M225.784 46.8288C225.784 43.8279 225.784 40.8271 225.784 37.8262C225.784 36.2244 225.502 36.018 223.902 35.9148C223.18 35.8728 222.088 36.2971 222.027 35.0203C221.969 33.9193 222.79 33.2389 223.745 33.1089C227.652 32.5317 230.084 30.0927 232.036 26.9122C232.612 25.8634 233.381 24.9323 234.301 24.1675C235.588 23.2156 236.393 23.7355 236.382 25.341C236.382 27.3977 236.336 29.4582 236.218 31.5148C236.149 32.6616 236.561 33.1624 237.745 33.1357C239.624 33.0936 241.507 33.1357 243.386 33.1051C244.302 33.0821 244.867 33.4032 244.913 34.3589C244.959 35.3146 244.432 35.888 243.466 35.9301C241.587 35.976 239.704 35.9951 237.825 35.9569C236.737 35.9339 236.241 36.4118 236.241 37.4554C236.241 43.3654 236.195 49.2792 236.286 55.1892C236.321 57.3605 237.864 58.4079 239.983 57.7504C241.007 57.4331 241.893 56.6265 242.843 56.0913C243.284 55.8857 243.739 55.7157 244.207 55.5829C244.405 56.1449 244.81 56.7298 244.753 57.2573C244.636 57.9178 244.343 58.5345 243.905 59.0425C241.087 62.6168 237.466 64.4861 232.83 64.1727C229.321 63.9357 226.254 60.9271 226.017 57.0356C225.811 53.6448 225.975 50.2349 225.975 46.8326L225.784 46.8288Z" fill="#FFD9E1"/>
<path d="M182.238 63.1979C179.564 63.1979 176.868 63.2399 174.187 63.1634C173.679 63.1634 173.183 62.6703 172.679 62.3989C172.973 61.8561 173.256 61.3056 173.569 60.7742C173.664 60.6763 173.792 60.6154 173.928 60.6022C176.742 60.025 177.197 57.9492 177.185 55.537C177.166 51.462 177.143 47.3869 177.185 43.3042C177.212 41.3928 176.337 40.1925 174.745 39.3247C174.282 39.078 173.888 38.7192 173.599 38.2811C172.935 37.1878 173.347 36.4806 174.604 36.1594C177.319 35.4599 180.034 34.7603 182.711 33.9308C183.712 33.6173 184.571 32.8604 185.556 32.4667C186.121 32.2411 186.923 32.115 187.405 32.3596C187.786 32.5469 188.004 33.3879 187.993 33.9308C187.855 40.9111 187.645 47.8915 187.5 54.8719C187.524 55.8528 187.631 56.8299 187.821 57.7925C188.035 59.226 188.883 60.1052 190.265 60.5104C190.685 60.6328 191.204 60.7627 191.437 61.0724C191.751 61.4777 191.894 61.9889 191.838 62.4983C191.777 62.7735 191.101 63.0755 190.693 63.0832C187.874 63.1329 185.056 63.1099 182.234 63.1099L182.238 63.1979Z" fill="#FFD9E1"/>
<path d="M36.4628 109.281C36.4628 108.173 36.4361 107.206 36.4628 106.223C36.818 95.3092 38.1699 84.5213 40.9462 73.9552C42.7296 67.1851 45.59 60.9578 51.1655 56.3705C53.4111 54.5165 55.9163 53.102 58.8797 52.8994C63.8977 52.5592 67.7892 54.7038 70.8176 58.5954C74.3424 63.1177 76.5459 68.2784 78.104 73.7488C80.6054 82.5029 81.3845 91.517 82.133 100.535C82.3697 103.387 82.5721 106.238 82.8013 109.228C82.2704 109.266 81.7931 109.281 81.3195 109.331C80.4717 109.419 80.1204 109.056 80.0669 108.184C79.8302 104.43 79.6507 100.669 79.2573 96.93C78.7341 91.8993 78.3484 86.8226 77.3288 81.8874C75.763 74.2916 73.739 66.757 68.7286 60.545C67.389 58.8787 65.7539 57.4739 63.9054 56.4011C60.2392 54.3215 56.8099 55.5448 53.6669 57.8843C49.5043 60.9846 46.8655 65.1705 45.063 69.9642C42.5196 76.7229 41.1906 83.753 40.4803 90.8977C39.896 96.6815 39.5332 102.488 39.1055 108.287C39.0558 108.933 38.9184 109.316 38.1928 109.278C37.6123 109.258 37.0433 109.281 36.4628 109.281Z" fill="#FFD9E1"/>
<path d="M181.042 28.7013C179.732 28.1585 178.205 27.803 177.006 26.9734C174.779 25.4443 174.604 22.5352 176.368 20.4747C178.61 17.8829 183.41 17.3668 186.186 19.4158C189.089 21.5604 188.569 25.6699 185.094 27.3978C183.918 28.0018 182.57 28.2311 181.042 28.7013Z" fill="#FFD9E1"/>
<path d="M3.37583 93.2754C2.54713 94.1546 1.84827 94.8045 0.855359 94.0629C0.133588 93.5353 0.523116 92.9161 0.985202 92.4955C2.13851 91.4443 2.48985 92.8702 3.37583 93.2754Z" fill="#FFD9E1"/>
<path d="M118.386 83.6535C117.767 84.0701 117.24 84.6474 116.988 84.5442C116.526 84.3492 116.224 83.7796 115.842 83.34C116.255 83.0036 116.675 82.4034 117.083 82.4072C117.492 82.4111 117.828 83.08 118.386 83.6535Z" fill="#FFD9E1"/>
<path d="M7.0114 67.2806C6.29727 67.4679 5.59077 67.7049 4.86136 67.8234C4.66278 67.854 4.21979 67.5482 4.21215 67.3876C4.19108 66.9187 4.28413 66.4517 4.48329 66.0267C4.56349 65.8662 5.17451 65.782 5.36928 65.9158C5.93296 66.3384 6.4711 66.7942 6.98085 67.2806H7.0114Z" fill="#FFD9E1"/>
<path d="M101.373 24.5077C102.041 23.9305 102.564 23.2691 102.759 23.3609C103.251 23.5711 103.599 24.1254 104.004 24.5421C103.534 24.8326 103.091 25.234 102.583 25.364C102.346 25.4213 101.964 24.9511 101.373 24.5077Z" fill="#FFD9E1"/>
<path d="M4.84999 75.9735C4.2466 76.5202 3.77688 77.1662 3.5592 77.0898C3.0742 76.9254 2.71905 76.394 2.31042 76.0117C2.66558 75.6295 2.99019 75.0293 3.38735 74.9796C3.78452 74.9299 4.20078 75.4995 4.84999 75.9735Z" fill="#FFD9E1"/>
<path d="M10.7883 48.4267L8.22205 48.809C8.40917 48.0444 8.35953 47.1766 8.72996 46.9243C10.0093 46.0642 9.96728 47.8953 10.8418 47.9947L10.7883 48.4267Z" fill="#FFD9E1"/>
<path d="M8.22584 57.1732C7.57281 57.6243 7.18328 58.0754 6.74793 58.1289C6.49588 58.1557 5.8925 57.4829 5.94596 57.2191C6.02616 56.8139 6.51116 56.2252 6.85486 56.2022C7.19856 56.1793 7.63773 56.7221 8.22584 57.1732Z" fill="#FFD9E1"/>
<path d="M2.52425 86.3371C2.02015 85.7064 1.49315 85.3203 1.55043 85.0565C1.6459 84.5978 2.10417 84.2117 2.40968 83.7988C2.72283 84.1811 3.17346 84.5213 3.29948 84.9457C3.36822 85.2477 2.92905 85.6567 2.52425 86.3371Z" fill="#FFD9E1"/>
<path d="M48.8475 27.069L49.89 28.1317C49.5501 28.4069 49.1568 28.9421 48.8818 28.8962C48.4999 28.8198 48.1639 28.3152 47.8087 27.9941L48.8475 27.069Z" fill="#422930"/>
<path d="M19.8926 73.397C19.5107 72.8274 19.1784 72.5101 19.0753 72.1316C19.0295 71.9711 19.5336 71.455 19.6329 71.4971C20.0645 71.7086 20.4729 71.9648 20.8511 72.2616L19.8926 73.397Z" fill="#422930"/>
<path d="M81.0979 36.6373C80.6206 37.0769 80.3342 37.5624 80.0286 37.5662C79.7231 37.5701 79.3871 37.1151 79.0663 36.8628C79.3871 36.5608 79.662 36.1556 80.0401 36.0104C80.231 35.9339 80.6053 36.3162 81.0979 36.6373Z" fill="#422930"/>
<path d="M97.9393 105.654C97.6032 105.023 97.1946 104.587 97.2901 104.358C97.439 103.975 97.924 103.761 98.2677 103.475C98.4472 103.788 98.7909 104.121 98.7566 104.407C98.7145 104.744 98.3479 105.065 97.9393 105.654Z" fill="#422930"/>
<path d="M50.2604 22.99L49.7411 24.6071C49.447 24.4962 48.9773 24.4618 48.8895 24.2592C48.5076 23.4182 49.0537 23.0588 49.7334 22.8295L50.2604 22.99Z" fill="#422930"/>
<path d="M34.8894 39.2674C34.244 39.5962 33.8736 39.8867 33.4688 39.9478C33.2816 39.9784 33.0258 39.5656 32.7966 39.3438C33.1458 39.0235 33.5301 38.7439 33.9423 38.5105C34.076 38.4531 34.4082 38.866 34.8894 39.2674Z" fill="#422930"/>
<path d="M97.5803 87.3386C97.9049 87.8203 98.2792 88.1261 98.2524 88.3937C98.2257 88.6613 97.8476 88.9786 97.6223 89.2729C97.3225 88.955 97.0657 88.599 96.8585 88.214C96.786 88.0841 97.2099 87.7591 97.5803 87.3386Z" fill="#422930"/>
<path d="M101.109 83.665C101.472 84.3034 101.781 84.594 101.739 84.8119C101.606 85.2334 101.416 85.6347 101.174 86.0046C100.945 85.7599 100.529 85.5153 100.532 85.2744C100.532 84.8654 100.819 84.4831 101.109 83.665Z" fill="#422930"/>
<path d="M81.1439 31.0523C80.6436 31.3963 80.2808 31.8168 80.0708 31.748C79.7461 31.6448 79.5208 31.2128 79.2573 30.9185C79.5437 30.6929 79.8225 30.3068 80.1204 30.2916C80.4183 30.2763 80.6703 30.6815 81.1439 31.0523Z" fill="#422930"/>
<path d="M16.3028 98.9102C15.7758 99.3269 15.4818 99.6748 15.119 99.7818C14.9624 99.8238 14.6569 99.3154 14.424 99.0555C14.6859 98.7562 14.9972 98.5041 15.3443 98.31C15.52 98.2451 15.8446 98.6273 16.3028 98.9102Z" fill="#422930"/>
<path d="M16.0584 108.226C15.4971 108.528 15.1534 108.849 14.7944 108.857C14.5882 108.857 14.1414 108.295 14.2025 108.123C14.3247 107.775 14.6989 107.316 15.0044 107.293C15.3099 107.271 15.5811 107.775 16.0584 108.226Z" fill="#422930"/>
<path d="M96.9999 70.1094C96.7402 69.4978 96.4156 69.0849 96.5111 68.8632C96.7238 68.5244 97.0522 68.2744 97.4353 68.1598C97.546 68.1178 98.0501 68.6568 98.0043 68.7562C97.7126 69.2378 97.3764 69.6909 96.9999 70.1094Z" fill="#422930"/>
<path d="M33.7056 46.6377C33.4 46.1254 33.0563 45.7814 33.1251 45.617C33.3092 45.2722 33.589 44.9881 33.9309 44.7989C33.9996 44.7569 34.5686 45.25 34.5304 45.38C34.4197 45.747 34.1104 46.0528 33.7056 46.6377Z" fill="#422930"/>
<path d="M25.6935 59.7192L26.9117 60.4838C26.7093 60.7246 26.3809 61.1986 26.3312 61.1719C25.9445 60.9295 25.5791 60.6546 25.239 60.35L25.6935 59.7192Z" fill="#422930"/>
<path d="M22.9133 57.2688C23.1965 56.8418 23.5064 56.4332 23.8413 56.0455C24.1083 56.2041 24.3636 56.3817 24.6051 56.5769L23.4938 57.7237L22.9133 57.2688Z" fill="#422930"/>
<path d="M40.4802 36.9203L41.9429 36.4004C42.0377 36.65 42.1168 36.9054 42.1796 37.1649C41.7099 37.3714 41.2173 37.5205 40.7285 37.681L40.4802 36.9203Z" fill="#422930"/>
<path d="M61.1366 26.442C61.5164 26.6741 61.8688 26.9486 62.1868 27.2601C62.2594 27.3442 61.931 27.7685 61.805 28.0246L60.7013 26.9734L61.1366 26.442Z" fill="#422930"/>
<path d="M20.8702 100.76C20.2744 101.173 19.9613 101.502 19.5909 101.598C19.4152 101.643 19.125 101.238 18.8882 101.039C19.1746 100.768 19.4228 100.397 19.7627 100.275C19.9651 100.191 20.3126 100.497 20.8702 100.76Z" fill="#422930"/>
<path d="M74.6937 25.6125C75.086 26.0026 75.4569 26.4135 75.805 26.8435C75.8356 26.8817 75.4575 27.2258 75.2665 27.4398L74.1591 26.1401L74.6937 25.6125Z" fill="#422930"/>
<path d="M96.5836 74.2534C96.8968 74.8039 97.2252 75.125 97.1641 75.3391C97.0286 75.6735 96.7742 75.9459 96.45 76.1036C96.3507 76.1572 95.7817 75.6831 95.8122 75.534C95.8962 75.1785 96.1979 74.8612 96.5836 74.2534Z" fill="#422930"/>
<path d="M63.4967 22.9021C63.1606 22.4549 62.7864 22.0688 62.836 22.0038C63.0886 21.6868 63.4047 21.4264 63.764 21.2392C63.8404 21.1972 64.3445 21.6636 64.3063 21.763C64.0778 22.1705 63.8064 22.5524 63.4967 22.9021Z" fill="#422930"/>
<path d="M99.2492 64.4136L97.8095 65.0252C97.7178 64.7079 97.6262 64.3906 97.5383 64.0733L99.0048 63.7255C99.085 63.9548 99.1652 64.1842 99.2492 64.4136Z" fill="#422930"/>
<path d="M29.0236 51.9896C28.8632 51.7869 28.5233 51.4735 28.5692 51.4008C28.8079 51.0864 29.0764 50.7957 29.3711 50.5331C29.585 50.7663 29.9669 50.9995 29.9707 51.2403C29.9707 51.5882 29.7148 51.9437 29.5659 52.2992L29.0236 51.9896Z" fill="#422930"/>
<path d="M19.7627 93.3863L18.8042 94.4949C18.6209 94.2999 18.2505 93.9788 18.2848 93.9291C18.565 93.5525 18.8713 93.1961 19.2014 92.8625L19.7627 93.3863Z" fill="#422930"/>
<path d="M56.4928 22.172C55.8894 22.5276 55.5915 22.8334 55.2822 22.8449C55.0378 22.8449 54.7819 22.5046 54.5184 22.3135C54.7819 22.0841 55.0187 21.7363 55.3204 21.6636C55.5686 21.591 55.8894 21.87 56.4928 22.172Z" fill="#422930"/>
<path d="M102.346 98.3635L103.534 99.7703C102.839 99.7703 102.289 99.9079 102.171 99.7397C101.934 99.4033 101.934 98.9025 101.838 98.4706L102.346 98.3635Z" fill="#422930"/>
<path d="M90.6949 51.1371C90.2099 51.4811 89.9311 51.8252 89.7096 51.8022C89.3888 51.7678 89.0986 51.4582 88.7969 51.2671C89.0642 51.0148 89.301 50.6439 89.6141 50.5598C89.8318 50.5025 90.1564 50.8427 90.6949 51.1371Z" fill="#422930"/>
<path d="M101.754 77.4568L100.891 78.3666C100.677 78.1258 100.25 77.8238 100.299 77.6632C100.452 77.3363 100.707 77.068 101.025 76.8987C101.098 76.8375 101.411 77.1854 101.754 77.4568Z" fill="#422930"/>
<path d="M19.1861 85.4809C18.8309 85.6262 18.4681 85.9014 18.1321 85.8632C17.978 85.8081 17.8411 85.7134 17.7352 85.5886C17.6293 85.4638 17.5581 85.3132 17.5287 85.1521C17.5516 84.8616 17.9106 84.6017 18.1435 84.3264L18.8768 84.9189L19.1861 85.4809Z" fill="#422930"/>
<path d="M94.7734 62.3531C94.2999 62.7354 94.044 63.0565 93.7232 63.1406C93.5934 63.175 93.1619 62.6933 93.1657 62.4487C93.1972 62.2933 93.2682 62.1486 93.3719 62.0287C93.4756 61.9089 93.6084 61.8178 93.7576 61.7644C93.9982 61.7262 94.2961 62.0549 94.7734 62.3531Z" fill="#422930"/>
<path d="M16.3296 89.0093C16.7115 89.468 17.0933 89.7738 17.0437 89.942C16.9868 90.1062 16.8963 90.2566 16.7779 90.3837C16.6595 90.5107 16.5159 90.6116 16.3563 90.6798C16.2226 90.7333 15.7185 90.2976 15.7147 90.1064C15.7071 89.835 16.0393 89.5292 16.3296 89.0093Z" fill="#422930"/>
<path d="M73.2769 29.9781C73.5939 30.391 73.9262 30.6395 73.9338 30.8956C73.9338 31.0868 73.5099 31.4537 73.2922 31.4423C73.0745 31.4308 72.7881 31.0906 72.5284 30.8956L73.2769 29.9781Z" fill="#422930"/>
<path d="M21.0994 66.0687L22.3902 65.415L22.6804 66.3172L21.3018 66.6574L21.0994 66.0687Z" fill="#422930"/>
<path d="M38.9527 34.0226C38.3302 34.3246 38.0285 34.5731 37.7192 34.5846C37.5168 34.5846 37.2991 34.252 37.0929 34.0685C37.3602 33.82 37.597 33.4683 37.9178 33.3613C38.0896 33.3116 38.4028 33.6633 38.9527 34.0226Z" fill="#422930"/>
</g>
<defs>
<clipPath id="clip0_2317_66">
<rect width="354" height="110" fill="white"/>
</clipPath>
</defs>
</svg>
