<svg width="1920" height="235" viewBox="0 0 1920 235" fill="none" xmlns="http://www.w3.org/2000/svg">
<rect x="379" y="119.597" width="14" height="14" rx="7" transform="rotate(-76.2185 379 119.597)" fill="#FF8BA7"/>
<rect x="268" y="16.8849" width="4" height="4" rx="2" transform="rotate(-76.2185 268 16.8849)" fill="#FF8BA7"/>
<rect x="1025" y="50.6259" width="13" height="13" rx="6.5" transform="rotate(-76.2185 1025 50.6259)" fill="#FF8BA7"/>
<rect x="1184" y="183.309" width="24" height="24" rx="12" transform="rotate(-76.2185 1184 183.309)" fill="#FFC6C7"/>
<rect x="319" y="181.77" width="8" height="8" rx="4" transform="rotate(-76.2185 319 181.77)" fill="#FFC6C7"/>
<rect x="1119" y="121.827" width="6" height="6" rx="3" transform="rotate(-76.2185 1119 121.827)" fill="#FF8BA7"/>
<rect x="255" y="73.856" width="5" height="5" rx="2.5" transform="rotate(-76.2185 255 73.856)" fill="#FFC6C7"/>
<rect x="1116" y="13.8561" width="5" height="5" rx="2.5" transform="rotate(-76.2185 1116 13.8561)" fill="#FFC6C7"/>
<rect x="42" y="188.827" width="6" height="6" rx="3" transform="rotate(-76.2185 42 188.827)" fill="#FFC6C7"/>
<rect x="310.256" y="57.0297" width="3" height="3" rx="1.5" transform="rotate(-76.2185 310.256 57.0297)" fill="#FF8BA7"/>
<rect x="258" y="141.424" width="20" height="20" rx="10" transform="rotate(-76.2185 258 141.424)" fill="#FF8BA7"/>
<rect x="679.361" y="40.3615" width="13" height="13" rx="6.5" transform="rotate(180 679.361 40.3615)" fill="#FF8BA7"/>
<rect x="51" y="137.597" width="14" height="14" rx="7" transform="rotate(-76.2185 51 137.597)" fill="#FF8BA7"/>
<rect x="937" y="16.8561" width="5" height="5" rx="2.5" transform="rotate(-76.2185 937 16.8561)" fill="#FFC6C7"/>
<rect x="131.256" y="60.0297" width="3" height="3" rx="1.5" transform="rotate(-76.2185 131.256 60.0297)" fill="#FF8BA7"/>
<rect x="133" y="204.424" width="20" height="20" rx="10" transform="rotate(-76.2185 133 204.424)" fill="#FF8BA7"/>
<rect x="500.361" y="43.3615" width="13" height="13" rx="6.5" transform="rotate(180 500.361 43.3615)" fill="#FF8BA7"/>
<rect x="779.513" y="174.513" width="24" height="24" rx="12" transform="rotate(180 779.513 174.513)" fill="#FFC6C7"/>
<rect width="24" height="24" rx="12" transform="matrix(-1 0 0 1 598 203)" fill="#FF8BA7"/>
<rect x="958.838" y="170.838" width="8" height="8" rx="4" transform="rotate(180 958.838 170.838)" fill="#FFC6C7"/>
<rect x="154" y="123" width="10" height="10" rx="5" transform="rotate(180 154 123)" fill="#FF8BA7"/>
<rect x="765.628" y="110.628" width="6" height="6" rx="3" transform="rotate(180 765.628 110.628)" fill="#FF8BA7"/>
<rect x="876.466" y="124.466" width="14" height="14" rx="7" transform="rotate(180 876.466 124.466)" fill="#FF8BA7"/>
<rect x="847.042" y="20.1007" width="10.0485" height="10.0485" rx="5.02426" transform="rotate(180 847.042 20.1007)" fill="#FF8BA7"/>
<rect x="1357" y="46" width="5" height="5" rx="2.5" transform="rotate(180 1357 46)" fill="#FFC6C7"/>
<rect x="1199" y="64" width="5" height="5" rx="2.5" transform="rotate(180 1199 64)" fill="#FFC6C7"/>
<rect x="679.628" y="177.628" width="6" height="6" rx="3" transform="rotate(180 679.628 177.628)" fill="#FFC6C7"/>
<rect x="993" y="98" width="3" height="3" rx="1.5" transform="rotate(180 993 98)" fill="#FF8BA7"/>
<rect x="909.164" y="188.855" width="20" height="20" rx="10" transform="rotate(180 909.164 188.855)" fill="#FF8BA7"/>
<rect x="1826" y="81.0912" width="24" height="24" rx="12" transform="rotate(-17.1855 1826 81.0912)" fill="#FFC6C7"/>
<rect x="558" y="83.3638" width="8" height="8" rx="4" transform="rotate(-17.1855 558 83.3638)" fill="#FFC6C7"/>
<rect x="505.617" y="179.315" width="10.0485" height="10.0485" rx="5.02426" transform="rotate(-17.1855 505.617 179.315)" fill="#FF8BA7"/>
<rect x="450.587" y="151.929" width="5" height="5" rx="2.5" transform="rotate(-17.1855 450.587 151.929)" fill="#FFC6C7"/>
<rect x="586" y="21.7728" width="6" height="6" rx="3" transform="rotate(-17.1855 586 21.7728)" fill="#FFC6C7"/>
<rect x="1659.03" y="201.732" width="10.0485" height="10.0485" rx="5.02426" transform="rotate(-17.1855 1659.03 201.732)" fill="#FF8BA7"/>
<rect x="1604" y="174.346" width="5" height="5" rx="2.5" transform="rotate(-17.1855 1604 174.346)" fill="#FFC6C7"/>
<rect x="1772.43" y="1.77283" width="6" height="6" rx="3" transform="rotate(-17.1855 1772.43 1.77283)" fill="#FFC6C7"/>
<rect x="396.408" y="36.4495" width="20" height="20" rx="10" transform="rotate(-17.1855 396.408 36.4495)" fill="#FF8BA7"/>
<rect width="24" height="24" rx="12" transform="matrix(0.23822 -0.971211 -0.971211 -0.23822 1360.31 175.027)" fill="#FF8BA7"/>
<rect x="1653" y="85.9093" width="20" height="20" rx="10" transform="rotate(-17.1855 1653 85.9093)" fill="#FF8BA7"/>
<rect width="24" height="24" rx="12" transform="matrix(0.23822 -0.971211 -0.971211 -0.23822 1855.9 202.486)" fill="#FF8BA7"/>
<rect width="24" height="24" rx="12" transform="matrix(0.23822 -0.971211 -0.971211 -0.23822 1284.31 95.0264)" fill="#FF8BA7"/>
<rect x="1472" y="116.712" width="10" height="10" rx="5" transform="rotate(-76.2185 1472 116.712)" fill="#FF8BA7"/>
<rect x="1541.94" y="67.7593" width="10.0485" height="10.0485" rx="5.02426" transform="rotate(-76.2185 1541.94 67.7593)" fill="#FF8BA7"/>
</svg>
