<svg width="329" height="135" viewBox="0 0 329 135" fill="none" xmlns="http://www.w3.org/2000/svg">
<rect x="311" y="110.597" width="14" height="14" rx="7" transform="rotate(-76.2185 311 110.597)" fill="#FF8BA7"/>
<rect x="268" y="7.88477" width="4" height="4" rx="2" transform="rotate(-76.2185 268 7.88477)" fill="#FF8BA7"/>
<rect x="34" y="41.6257" width="13" height="13" rx="6.5" transform="rotate(-76.2185 34 41.6257)" fill="#FF8BA7"/>
<rect width="24" height="24" rx="12" transform="matrix(0.23822 -0.971211 -0.971211 -0.23822 23.3091 129.026)" fill="#FF8BA7"/>
<rect x="135" y="70.7122" width="10" height="10" rx="5" transform="rotate(-76.2185 135 70.7122)" fill="#FF8BA7"/>
<rect x="128" y="112.827" width="6" height="6" rx="3" transform="rotate(-76.2185 128 112.827)" fill="#FF8BA7"/>
<rect x="230" y="125.597" width="14" height="14" rx="7" transform="rotate(-76.2185 230 125.597)" fill="#FF8BA7"/>
<rect x="204.941" y="21.7593" width="10.0485" height="10.0485" rx="5.02426" transform="rotate(-76.2185 204.941 21.7593)" fill="#FF8BA7"/>
<rect x="255" y="64.856" width="5" height="5" rx="2.5" transform="rotate(-76.2185 255 64.856)" fill="#FFC6C7"/>
<rect x="125" y="4.85596" width="5" height="5" rx="2.5" transform="rotate(-76.2185 125 4.85596)" fill="#FFC6C7"/>
<rect x="310.256" y="48.0295" width="3" height="3" rx="1.5" transform="rotate(-76.2185 310.256 48.0295)" fill="#FF8BA7"/>
</svg>
