<svg width="334" height="206" viewBox="0 0 334 206" fill="none" xmlns="http://www.w3.org/2000/svg">
<path d="M306.968 109.305C307.543 100.643 307.29 91.9452 306.214 83.3306C304.745 71.5779 303.656 62.8555 299.409 55.1887C289.015 36.4614 262.233 28.5165 241.569 29.2145C237.849 29.345 205.277 31.1894 192.937 51.4829C189.308 57.4359 188.514 66.2775 186.66 83.83C185.333 96.4227 185.095 108.266 185.095 109.322C185.095 109.452 185.095 109.56 185.095 109.628" stroke="#212121" stroke-width="5" stroke-miterlimit="10"/>
<path d="M220.02 109.299C220.054 105.452 220.196 100.032 220.695 93.5626C221.466 83.6768 221.829 78.734 223.411 75.4028C227.585 66.4875 237.452 63.0485 244.421 62.9179C252.638 62.7363 262.851 66.9755 267.104 76.237C268.907 80.1414 269.429 84.8402 270.154 94.3968C270.154 94.3968 270.274 96.2241 270.54 108.97V109.305" stroke="#212121" stroke-width="5" stroke-miterlimit="10"/>
<path d="M212.535 107.449C212.203 100.351 212.712 93.238 214.049 86.259C216.125 75.4198 217.333 69.0412 223.156 63.633C231.418 55.9662 242.658 55.8754 245.164 55.8527C248.266 55.8527 261.484 56.1194 269.451 65.0461C273.568 69.6598 274.555 75.7263 276.256 87.672C277.217 94.2294 277.724 100.845 277.776 107.472H297.504C298.181 100.162 297.927 92.7953 296.75 85.5496C294.952 74.5402 293.115 63.0258 283.849 53.0266C269.27 37.2957 247.608 36.7849 245.141 36.7622C243.565 36.7622 217.718 36.8757 204.165 54.4396C198.574 61.6865 197.241 69.2342 195.07 81.2877C193.524 89.9165 193.014 98.699 193.55 107.449H212.535Z" fill="#212121" stroke="#212121" stroke-width="5" stroke-miterlimit="10"/>
<path d="M285.233 88.2453C285.233 87.1483 284.344 86.259 283.248 86.259C282.152 86.259 281.263 87.1483 281.263 88.2453C281.263 89.3422 282.152 90.2315 283.248 90.2315C284.344 90.2315 285.233 89.3422 285.233 88.2453Z" fill="#FFFFFE"/>
<path d="M239.868 49.6557C239.868 48.5587 238.979 47.6694 237.883 47.6694C236.787 47.6694 235.898 48.5587 235.898 49.6557C235.898 50.7526 236.787 51.6419 237.883 51.6419C238.979 51.6419 239.868 50.7526 239.868 49.6557Z" fill="#FFFFFE"/>
<path d="M203.576 88.8126C203.576 87.7157 202.687 86.8264 201.591 86.8264C200.495 86.8264 199.606 87.7157 199.606 88.8126C199.606 89.9096 200.495 90.7989 201.591 90.7989C202.687 90.7989 203.576 89.9096 203.576 88.8126Z" fill="#FFFFFE"/>
<path d="M210.38 58.1681C210.38 57.0711 209.492 56.1819 208.396 56.1819C207.299 56.1819 206.411 57.0711 206.411 58.1681C206.411 59.2651 207.299 60.1543 208.396 60.1543C209.492 60.1543 210.38 59.2651 210.38 58.1681Z" fill="#FFFFFE"/>
<path d="M281.263 57.0331C281.263 55.9361 280.375 55.0469 279.278 55.0469C278.182 55.0469 277.294 55.9361 277.294 57.0331C277.294 58.1301 278.182 59.0193 279.278 59.0193C280.375 59.0193 281.263 58.1301 281.263 57.0331Z" fill="#FFFFFE"/>
<path d="M252.91 40.5758C252.91 40.1057 252.529 39.7246 252.059 39.7246C251.59 39.7246 251.209 40.1057 251.209 40.5758C251.209 41.046 251.59 41.4271 252.059 41.4271C252.529 41.4271 252.91 41.046 252.91 40.5758Z" fill="#FFFFFE"/>
<path d="M292.604 101.581C292.604 100.954 292.097 100.446 291.47 100.446C290.844 100.446 290.336 100.954 290.336 101.581C290.336 102.208 290.844 102.716 291.47 102.716C292.097 102.716 292.604 102.208 292.604 101.581Z" fill="#FFFFFE"/>
<path d="M211.514 75.4765C211.514 74.8497 211.007 74.3416 210.38 74.3416C209.754 74.3416 209.246 74.8497 209.246 75.4765C209.246 76.1034 209.754 76.6115 210.38 76.6115C211.007 76.6115 211.514 76.1034 211.514 75.4765Z" fill="#FFFFFE"/>
<path d="M223.423 45.9669C223.423 45.6535 223.169 45.3994 222.856 45.3994C222.543 45.3994 222.289 45.6535 222.289 45.9669C222.289 46.2803 222.543 46.5344 222.856 46.5344C223.169 46.5344 223.423 46.2803 223.423 45.9669Z" fill="#FFFFFE"/>
<path d="M209.246 101.581C209.246 101.268 208.992 101.014 208.679 101.014C208.366 101.014 208.112 101.268 208.112 101.581C208.112 101.895 208.366 102.149 208.679 102.149C208.992 102.149 209.246 101.895 209.246 101.581Z" fill="#FFFFFE"/>
<path d="M204.143 68.6666C204.143 68.3532 203.889 68.0991 203.576 68.0991C203.262 68.0991 203.008 68.3532 203.008 68.6666C203.008 68.98 203.262 69.2341 203.576 69.2341C203.889 69.2341 204.143 68.98 204.143 68.6666Z" fill="#FFFFFE"/>
<path d="M286.934 71.7878C286.934 71.3176 286.553 70.9365 286.083 70.9365C285.613 70.9365 285.233 71.3176 285.233 71.7878C285.233 72.2579 285.613 72.639 286.083 72.639C286.553 72.639 286.934 72.2579 286.934 71.7878Z" fill="#FFFFFE"/>
<path d="M261.416 52.4931C261.416 52.023 261.035 51.6418 260.565 51.6418C260.096 51.6418 259.715 52.023 259.715 52.4931C259.715 52.9632 260.096 53.3443 260.565 53.3443C261.035 53.3443 261.416 52.9632 261.416 52.4931Z" fill="#FFFFFE"/>
<path d="M222.289 58.1681C222.289 57.698 221.908 57.3169 221.438 57.3169C220.968 57.3169 220.587 57.698 220.587 58.1681C220.587 58.6383 220.968 59.0194 221.438 59.0194C221.908 59.0194 222.289 58.6383 222.289 58.1681Z" fill="#FFFFFE"/>
<path d="M31.3869 88.3133C31.5457 88.8791 31.735 89.4363 31.954 89.9817C32.1411 90.4187 32.2829 90.7024 32.2829 90.7024C32.9613 92.0315 33.8716 93.2289 34.9707 94.2379C36.7097 95.8343 39.0328 96.7973 41.9399 97.1264C44.5001 97.4119 47.0916 97.1072 49.5159 96.2355C52.0488 95.3508 54.296 93.7981 56.0201 91.7409C57.8194 89.6338 58.9138 86.8906 59.3034 83.5123C59.7043 80.8014 59.3958 78.0326 58.4074 75.4766C57.4202 73.1442 56.0432 70.9968 54.3359 69.1263C52.5555 67.177 50.6781 65.319 48.7107 63.5592C46.7414 61.7926 44.8728 59.9171 43.1138 57.9411C41.3999 56.0207 40.0302 53.8187 39.0649 51.4319C38.0672 48.7855 37.7532 45.9298 38.152 43.1295C38.5552 39.971 39.4829 36.9022 40.8965 34.0496C42.4123 30.8808 44.3924 27.9562 46.7713 25.3726C49.1195 22.7871 51.9591 20.6957 55.1241 19.221C58.2963 17.7585 61.8155 17.2178 65.2802 17.6604C67.5485 17.9271 70.5312 18.8465 71.8071 21.4626C75.2549 28.5506 63.0914 43.9864 62.4676 43.487C61.8438 42.9876 71.5803 25.8947 68.3651 21.8144C67.4975 20.7192 65.473 20.3106 64.8209 20.1744C63.2394 19.9015 61.6153 20.0223 60.0916 20.5262C59.1061 20.7943 58.1545 21.1752 57.2563 21.6612C54.7678 23.0103 52.5463 24.8027 50.7011 26.9503C48.7931 29.1237 47.1887 31.5463 45.9321 34.1517C44.805 36.3889 44.0558 38.7974 43.7148 41.2795C43.3749 43.6344 43.7317 46.0373 44.7412 48.1915C45.7833 50.2688 47.1587 52.161 48.8127 53.7927C50.5366 55.5255 52.3872 57.2714 54.3643 59.0306C56.341 60.7921 58.18 62.7029 59.8648 64.7453C61.5785 66.8354 62.902 69.2171 63.7719 71.7765C64.6865 74.425 64.9383 77.5366 64.5261 81.1118C64.2113 84.4413 63.1742 87.6624 61.4866 90.5492C59.9708 93.0859 57.9402 95.2758 55.5268 96.9789C53.2302 98.5946 50.6622 99.7846 47.9451 100.492C45.3749 101.164 42.7029 101.356 40.063 101.059C38.0514 100.834 36.0901 100.282 34.2562 99.4248C33.3756 99.0542 32.5372 98.59 31.7555 98.0401C29.647 96.6458 28.0644 94.5863 27.2587 92.1893C26.6697 90.1605 26.5745 88.0199 26.9808 85.9468C27.4099 83.5242 28.3117 81.2105 29.6347 79.1369C32.7365 74.0635 37.239 71.2601 37.6416 71.7992C38.0442 72.3384 35.1579 75.1928 32.47 81.4409C32.47 81.4409 30.6214 85.7312 31.3869 88.3133Z" fill="#212121"/>
<path d="M86.8229 87.9615C85.3996 89.4427 83.7381 91.1849 81.1523 91.934C80.6363 92.0815 76.389 93.2335 73.2815 90.799C69.9641 88.1999 70.2307 83.3081 70.3781 80.5841C70.5204 78.6529 70.9015 76.7467 71.5122 74.9092C72.3923 71.9764 73.531 69.1281 74.9146 66.3968C75.8616 64.4049 75.8219 64.6943 76.6158 62.9918C78.4134 59.0875 79.4511 56.7494 79.4511 56.7494C80.296 54.8313 80.5852 54.0935 81.3621 53.9119C82.1957 53.7019 83.0633 54.3262 84.0557 55.0469C85.2635 55.9152 86.0007 56.4429 86.2105 57.3169C86.4657 58.4178 85.6434 59.1158 83.517 62.4243C83.2221 62.8726 82.19 64.4503 81.0729 66.4989C80.1146 68.2525 79.3717 69.6996 78.6799 71.2545C78.2092 72.3157 77.8917 73.1272 77.6478 73.7628C76.3266 77.1678 75.6745 78.8703 75.4363 80.5727C75.1698 82.4795 74.7105 85.8164 76.6158 87.3827C78.5211 88.9489 81.9689 87.7175 82.8535 87.3827C85.1217 86.5144 86.5904 85.0389 88.3597 82.8427C91.0765 79.4531 93.3833 75.7536 95.2325 71.822L96.0774 72.8094C95.1588 74.5119 93.8091 77.0032 92.108 80.0052C91.3311 81.3899 90.73 82.5873 89.6753 84.1763C88.8417 85.5224 87.8873 86.7896 86.8229 87.9615ZM91.3594 47.6695C89.9871 49.0939 88.8076 50.2516 87.9571 51.0745C87.5278 51.0127 87.1303 50.8134 86.8235 50.5065C86.5167 50.1996 86.3177 49.8016 86.2559 49.372C86.7379 48.013 87.3061 46.6862 87.9571 45.3995C88.6602 43.9921 88.8757 43.8049 90.2253 41.4271C90.8604 40.2921 91.9719 38.3002 93.0606 36.3196C94.5804 33.5332 94.7618 33.17 95.3289 32.9147C97.2455 32.0634 100.614 33.7148 101 35.7521C101.164 36.6204 99.5989 38.425 96.463 41.9946C93.3271 45.5641 92.624 46.3699 91.3594 47.6695Z" fill="#212121"/>
<path d="M125.973 55.501C127.498 51.2731 128.944 47.7831 130.079 45.1783C131.343 42.1325 132.783 39.1632 134.394 36.2856C135.555 34.0756 136.93 31.9848 138.499 30.0432C139.804 28.4958 140.913 27.7222 141.828 27.7222C142.325 27.7314 142.8 27.9351 143.149 28.2897C143.36 28.5024 143.522 28.758 143.625 29.039C143.727 29.3201 143.768 29.62 143.745 29.9184C143.745 31.0534 143.106 32.8807 141.828 35.4003C140.297 38.4421 138.783 41.5009 137.082 44.4405C134.988 48.0872 133.159 51.8803 131.61 55.7904C131.36 56.3579 131.009 57.1693 130.606 58.1624C129.189 61.6764 128 65.2782 127.045 68.9448C126.123 72.398 125.425 75.9063 124.952 79.4491C124.385 83.8358 124.521 85.6915 124.952 87.394C125.264 88.6368 126.217 92.422 128.616 93.0689C129.472 93.2959 130.458 93.1143 132.284 91.934C134.621 90.4188 136.617 88.3758 140.671 82.2866C141.289 81.3559 142.656 79.2051 145.389 74.9092C146.523 73.1329 147.442 71.6688 148.054 70.6984C148.076 71.1569 148.059 71.616 148.003 72.0717C147.824 73.5086 147.282 74.8757 146.427 76.0442C144.522 79.3129 142.906 82.0142 141.715 83.9891L141.556 84.2444C141.556 84.2444 141.199 84.8119 140.841 85.4078C137.326 91.026 135.426 93.0689 135.426 93.0689C133.583 95.0438 130.776 98.0515 127.566 97.6089C123.455 97.0414 121.329 91.1849 120.762 89.664C119.628 86.5314 119.656 83.8131 119.713 81.1516C119.786 77.9566 120.353 75.5561 121.465 70.7494C122.684 65.4604 124.238 60.7389 125.253 57.6574C125.548 56.7494 125.803 56.006 125.973 55.501ZM148.321 48.0271C142.764 47.9552 137.133 47.8398 131.428 47.6809C125.943 47.5296 120.525 47.3404 115.176 47.1134L118.579 45.9784C123.274 45.7741 128.156 45.655 133.203 45.6493C138.545 45.6493 143.688 45.7628 148.633 45.9784C148.759 46.6752 148.649 47.3942 148.321 48.0214V48.0271Z" fill="#212121"/>
<path d="M152.874 71.5042C152.264 72.5711 151.802 73.7168 151.502 74.9091C151.179 76.2076 151.033 77.544 151.066 78.8816C150.895 80.7844 151.045 82.7031 151.508 84.5565C151.957 85.7119 152.749 86.7022 153.776 87.394C155.948 88.6822 158.744 87.0705 160.178 86.259C164.613 83.7734 167.454 79.381 170.726 74.3416C171.869 72.4996 173.421 70.9458 175.262 69.8017C176.447 69.081 178.307 68.2184 178.664 68.6667C178.948 69.0186 178.194 70.0968 177.53 70.9367C176.098 72.1466 174.77 73.4756 173.561 74.9091C171.162 77.7466 170.663 79.2845 167.89 82.854C166.863 84.266 165.725 85.5945 164.488 86.8265C162.588 88.6311 158.942 92.1155 154.332 91.9339C152.987 91.985 151.664 91.5855 150.572 90.7989C150.079 90.4074 149.177 89.5505 148.304 87.394C146.756 83.6485 146.886 79.9882 146.932 78.3141C147.066 74.248 147.831 70.2273 149.2 66.3967C149.876 64.2039 150.829 62.1065 152.035 60.1543C153.954 57.1954 156.463 54.6659 159.407 52.7258C160.143 52.2142 160.917 51.7589 161.721 51.3638C163.231 50.5313 164.914 50.063 166.637 49.9961C167.297 49.9937 167.951 50.1091 168.571 50.3366C169.144 50.5037 169.673 50.7964 170.119 51.1935C170.578 51.6544 170.944 52.1998 171.196 52.7995C172.109 54.939 171.383 58.344 170.283 60.7445C169.589 62.2081 168.661 63.5496 167.539 64.717C166.207 66.2464 164.668 67.5834 162.968 68.6894C160.798 70.2233 158.284 71.1977 155.647 71.5269C154.725 71.616 153.795 71.6086 152.874 71.5042ZM153.334 69.2342C154.898 68.6548 156.415 67.9545 157.87 67.1402C159.589 66.1953 161.219 65.0972 162.741 63.86C164.234 62.6711 165.536 61.2604 166.603 59.6776C167.581 58.2651 168.109 56.5893 168.117 54.8709C168.144 54.4052 168.039 53.9413 167.817 53.5316C167.618 53.2138 167.198 53.0606 166.552 53.0606C165.158 53.1336 163.824 53.6528 162.747 54.5418C161.29 55.6328 159.991 56.9202 158.885 58.3667C157.612 59.9948 156.493 61.7393 155.545 63.5763C154.59 65.377 153.845 67.2809 153.322 69.2512" fill="#212121"/>
<path d="M97.5971 74.3417C97.2484 75.2242 96.97 76.1333 96.7635 77.06C96.4715 78.3641 96.3229 79.696 96.3212 81.0325C96.1511 82.9353 96.3008 84.8534 96.7635 86.7074C97.2161 87.8605 98.0071 88.8497 99.0318 89.5449C101.045 90.7366 103.529 89.3973 105.44 88.4099C108.967 86.5882 111.065 84.0685 113.452 81.1516C115.63 78.4787 115.8 77.7467 118.556 74.3417C120.166 72.3555 121.578 70.8006 122.525 69.8018L120.824 74.9092C120.302 75.5391 119.503 76.5209 118.556 77.7467C116.021 81.0154 115.199 82.4171 113.146 84.9992C112.107 86.4021 110.97 87.7294 109.744 88.9717C107.85 90.782 104.198 94.2664 99.5932 94.0791C98.2476 94.1274 96.9235 93.7284 95.8279 92.9441C95.3402 92.5526 94.4329 91.6957 93.5596 89.5392C92.4346 86.6518 91.9639 83.5504 92.1817 80.4593C92.3915 75.9193 93.5823 72.5598 94.7561 69.2343C95.3935 67.231 96.2158 65.2913 97.2115 63.4402C97.9714 62.0555 100.466 57.7993 104.657 54.8766C105.394 54.3636 106.169 53.9083 106.976 53.5147C108.484 52.6755 110.169 52.2067 111.893 52.147C112.551 52.1404 113.204 52.2539 113.821 52.4818C114.387 52.649 114.909 52.9376 115.352 53.3274C115.811 53.7886 116.176 54.3338 116.429 54.9334C117.337 57.0729 116.611 60.4722 115.516 62.8784C114.816 64.3385 113.89 65.6795 112.772 66.8508C111.437 68.3802 109.897 69.7166 108.196 70.8233C105.655 72.4747 103.29 73.0365 100.875 73.6607C99.5478 74.0126 98.4137 74.2225 97.5971 74.3417ZM98.5895 71.3851C100.15 70.7949 101.666 70.0929 103.126 69.2853C104.844 68.3439 106.472 67.2481 107.991 66.0109C109.483 64.8209 110.785 63.4107 111.853 61.8285C112.832 60.4143 113.36 58.7362 113.367 57.0162C113.391 56.5513 113.289 56.0886 113.072 55.6768C112.917 55.4984 112.719 55.3619 112.497 55.2796C112.275 55.1974 112.036 55.172 111.802 55.2058C110.417 55.2845 109.092 55.7967 108.014 56.6699C106.555 57.7607 105.255 59.05 104.152 60.5006C102.869 62.1196 101.75 63.863 100.812 65.7045C99.8903 67.5278 99.1458 69.4357 98.5895 71.4021V71.3851Z" fill="#212121"/>
<path d="M69.8112 183.868C67.7385 183.057 65.8774 181.786 64.3674 180.151C61.3336 177.047 60.2221 173.642 59.4282 171.111C58.2947 167.366 57.7792 163.461 57.9028 159.551C57.913 154.259 58.5431 148.987 59.7798 143.843C60.9939 138.668 62.703 133.623 64.8834 128.776C66.8942 124.276 69.3768 120.004 72.2892 116.03C74.7259 112.657 77.6854 109.695 81.056 107.256C84.1142 105.115 87.1389 104.046 90.129 104.05C92.0474 104.005 93.9108 104.693 95.3403 105.974C96.4246 106.966 97.2746 108.187 97.8297 109.549C99.134 112.784 98.5499 116.018 98.2834 117.494C97.9585 119.042 97.5048 120.561 96.9281 122.034C96.5141 123.208 96.1115 124.202 95.794 124.968C95.7526 125.068 95.6993 125.163 95.6352 125.251C95.5224 125.409 95.3721 125.535 95.1986 125.62C93.418 126.54 91.093 127.709 91.093 127.709C90.4579 128.095 89.8965 128.032 89.7434 127.709C89.6714 127.527 89.6714 127.323 89.7434 127.141C89.9425 126.679 90.1698 126.23 90.4239 125.796L90.5657 125.564L90.6394 125.439C90.8492 125.081 92.4426 122.601 92.4426 122.601C93.1276 121.514 93.7287 120.376 94.2402 119.196C94.5918 118.461 94.8935 117.703 95.1419 116.926C95.6522 115.252 96.2306 113.198 95.5898 111.251C95.1742 110.034 94.3792 108.981 93.3216 108.249C92.4778 107.57 91.4599 107.141 90.3842 107.012C88.235 106.836 86.0915 107.926 83.3753 110.468C81.3509 112.364 79.1337 114.94 76.321 119.707C73.9201 123.829 71.8622 128.141 70.1684 132.6C68.3725 137.333 66.9191 142.188 65.819 147.128C64.8153 151.345 63.9591 155.011 63.6188 160.056C63.2276 165.782 63.806 168.733 64.1859 170.271C64.8607 173.017 65.6036 175.878 68.1553 178.216C69.142 179.118 71.5577 181.308 74.393 181.053C79.3378 180.61 82.8366 173.108 84.0331 169.136C84.6795 166.979 84.8213 165.294 86.3013 162.893C87.8438 160.379 90.3445 157.905 91.1044 158.353C92.2782 159.04 89.0913 166.429 87.4355 170.271C84.5661 176.905 83.0748 180.264 80.0637 182.188C77.0526 184.112 72.8279 185.031 69.8112 183.868Z" fill="#212121"/>
<path d="M98.6689 157.763C100.194 154.642 102.19 152.406 105.519 148.683C106.392 147.707 107.129 146.924 107.628 146.413H109.738C108.754 147.463 107.871 148.603 107.101 149.818C106.33 151.105 105.626 152.431 104.992 153.791C104.175 155.431 103.58 156.628 102.882 158.331C102.477 159.256 102.125 160.203 101.827 161.168C101.234 162.997 101.056 164.936 101.306 166.843C101.407 167.985 101.817 169.077 102.491 170.004C102.833 170.448 103.247 170.832 103.716 171.139C104.46 171.407 105.258 171.49 106.041 171.383C107.379 171.184 108.218 170.446 109.732 169.113C110.067 168.818 110.986 167.717 112.828 165.526C113.611 164.59 114.042 164.039 113.934 163.432C113.775 162.53 113.044 162.615 111.791 160.805C111.11 159.766 110.572 158.64 110.192 157.457C109.309 155.034 108.856 152.476 108.853 149.898C108.808 147.813 109.144 145.738 109.846 143.774C110.411 142.026 111.403 140.446 112.732 139.178C113.158 138.787 113.633 138.454 114.144 138.185C115.116 137.682 116.197 137.428 117.291 137.447C118.074 137.447 120.501 137.674 122.026 139.62C123.211 141.13 123.234 142.883 123.234 145.057C123.224 147.982 122.671 150.88 121.601 153.603C119.605 158.614 116.628 161.52 117.467 162.643C117.853 163.16 119.14 163.427 119.548 163.512C119.941 163.587 120.339 163.627 120.739 163.631C121.804 163.629 122.857 163.411 123.835 162.99C125.132 162.534 126.3 161.771 127.238 160.765C129.018 158.773 129.029 156.526 129.948 156.52C130.39 156.52 130.821 157.02 130.986 157.508C131.638 159.465 128.394 162.615 126.12 164.074C126.12 164.074 123.172 165.997 120.132 166.003C119.409 165.995 118.688 165.912 117.983 165.753C117.562 165.652 117.149 165.522 116.747 165.362C116.299 165.18 116.1 165.055 116.004 165.016C114.932 164.601 112.879 169.442 109.585 172.427C108.383 173.517 105.916 175.775 102.831 175.389C101.218 175.128 99.7469 174.314 98.6689 173.085C96.9677 171.162 96.7125 168.863 96.5594 167.41C96.0774 163.035 97.7673 159.568 98.6689 157.763ZM114.473 160.867C115.99 158.445 117.265 155.879 118.278 153.206C119.236 150.799 119.749 148.238 119.792 145.647C119.792 143.756 119.533 142.356 119.015 141.448C118.842 141.064 118.566 140.737 118.217 140.501C117.869 140.266 117.462 140.132 117.042 140.114C115.817 140.114 114.564 141.073 113.276 142.951C111.989 144.83 111.348 147.27 111.348 150.164C111.354 152.118 111.617 154.062 112.131 155.947C112.555 157.735 113.344 159.417 114.45 160.884L114.473 160.867Z" fill="#212121"/>
<path d="M128.219 182.733C127.056 181.03 126.282 179.093 125.95 177.058C125.468 174.697 125.621 172.989 125.95 169.681C126.435 165.268 127.279 160.903 128.474 156.628C128.752 155.55 129.075 154.273 129.608 152.588C130.623 149.296 131.751 146.425 133.18 142.895C135.124 138.075 137.241 133.384 139.531 128.821C141.822 124.258 144.125 120.097 146.438 116.336C148.32 113.176 150.45 110.17 152.806 107.347C154.746 105.111 156.277 103.992 157.4 103.988C157.782 104.006 158.151 104.132 158.465 104.351C158.779 104.569 159.025 104.872 159.175 105.225C159.674 106.156 160.041 107.154 160.263 108.187C160.508 109.208 160.639 110.253 160.655 111.303C160.55 113.659 160.109 115.989 159.345 118.22C158.301 121.492 157.049 124.693 155.596 127.805C153.905 131.474 151.992 135.037 149.869 138.474C147.669 142.054 145.263 145.503 142.662 148.802C140.228 151.929 137.463 154.783 134.417 157.315C134.309 157.882 134.122 158.796 133.889 159.942C131.411 172.121 130.799 173.942 131.621 176.525C131.695 176.757 133.43 181.859 137.292 182.767C142.52 183.993 148.151 176.689 150.901 173.12C156.073 166.4 158.409 159.312 158.84 159.5C159.021 159.573 158.67 160.867 158.273 162.337C157.954 163.491 157.575 164.628 157.139 165.742C153.203 175.441 149.2 179.929 149.2 179.929C145.797 183.743 141.545 188.499 136.157 187.874C131.559 187.318 128.508 183.153 128.219 182.733ZM135.284 153.921C137.728 151.454 139.973 148.798 141.998 145.976C144.178 142.969 146.205 139.853 148.071 136.641C149.961 133.418 151.623 130.289 153.056 127.255C154.344 124.611 155.465 121.889 156.413 119.106C157.079 117.312 157.479 115.431 157.598 113.521C157.647 113.078 157.56 112.631 157.349 112.239C157.184 112.04 157.037 111.938 156.906 111.938C156.377 111.938 155.472 112.778 154.19 114.458C152.577 116.636 151.08 118.898 149.705 121.234C147.992 124.067 146.247 127.294 144.471 130.915C142.694 134.536 140.993 138.319 139.367 142.265C137.808 146.084 136.446 149.98 135.284 153.938V153.921Z" fill="#212121"/>
<path d="M263.747 170.248C264.051 169.135 264.241 167.994 264.314 166.843C264.378 165.898 264.378 164.95 264.314 164.006C264.178 161.94 263.9 162.002 263.423 158.734C263.338 158.138 263.14 156.736 262.76 154.841C262.136 151.822 261.722 150.635 261.303 148.7C261.07 147.622 261.03 147.151 260.838 146.192C260.425 144.152 259.882 142.141 259.21 140.171C259.147 139.605 259.147 139.034 259.21 138.468C259.312 137.498 259.511 135.699 260.911 134.496C261.73 133.857 262.713 133.464 263.747 133.361C264.306 133.229 264.889 133.229 265.448 133.361C265.872 133.438 266.266 133.635 266.582 133.928C266.984 134.401 267.187 135.011 267.149 135.631C267.149 136.948 266.554 137.515 266.015 139.036C265.721 139.957 265.531 140.909 265.448 141.873C265.244 144.047 265.907 145.721 266.463 147.23C267.642 150.425 268.504 153.518 269.032 155.232C269.869 158.082 270.3 161.035 270.313 164.006C270.438 166.281 270.327 168.563 269.984 170.815C269.389 174.538 268.975 177.103 267.149 179.328C264.546 182.483 259.085 184.923 255.241 182.733C251.986 180.877 251.43 176.598 251.271 175.355C250.98 173.024 251.374 170.657 252.405 168.546C253.458 166.484 255.02 164.726 256.942 163.438C263.611 158.535 273.494 154.358 276.222 153.223C280.558 151.668 282.827 151.101 283.027 151.521C283.18 151.85 282.046 152.792 279.624 154.358L272.253 157.763C261.405 162.746 259.272 163.614 257.509 166.276C254.821 170.322 254.617 176.076 256.375 177.058C257.758 177.83 260.299 176.025 261.478 174.788C262.604 173.49 263.384 171.928 263.747 170.248Z" fill="#212121"/>
<path d="M224.273 157.133C223.66 158.198 223.198 159.345 222.901 160.538C222.574 161.836 222.425 163.172 222.459 164.51C222.289 166.414 222.438 168.332 222.901 170.185C223.354 171.339 224.145 172.328 225.169 173.023C227.075 174.158 229.394 172.955 231.577 171.888C232.535 171.411 234.815 170.185 238.773 166.287C240.094 164.97 241.041 163.898 243.877 160.612C247.687 156.151 250.114 153.234 250.114 153.234C252.264 150.641 255.331 146.992 259.187 142.452C259.508 142.749 259.71 143.152 259.754 143.587C259.794 144.518 258.824 145.204 258.053 145.857C256.721 146.992 255.785 148.519 254.651 149.829C253.84 150.749 252.661 152.099 251.249 153.802C249.099 156.707 247.171 159.187 245.578 161.179C243.037 164.352 241.002 166.724 239.907 167.989C237.73 170.498 236.641 171.752 235.881 172.444C233.67 174.481 230.137 177.727 225.731 177.551C224.384 177.603 223.059 177.204 221.965 176.416C221.478 176.025 220.57 175.168 219.697 173.012C218.143 169.266 218.274 165.606 218.319 163.932C218.454 159.866 219.22 155.845 220.587 152.014C221.265 149.822 222.218 147.725 223.423 145.772C225.345 142.817 227.854 140.29 230.795 138.349C231.531 137.834 232.306 137.379 233.114 136.987C234.622 136.151 236.307 135.682 238.03 135.619C238.688 135.618 239.341 135.733 239.958 135.96C240.525 136.123 241.048 136.409 241.489 136.8C241.946 137.262 242.312 137.807 242.567 138.406C243.474 140.545 242.748 143.95 241.654 146.351C240.955 147.812 240.028 149.152 238.909 150.323C237.573 151.851 236.033 153.188 234.333 154.296C232.163 155.829 229.649 156.803 227.012 157.133C226.102 157.225 225.184 157.225 224.273 157.133ZM224.727 154.863C226.291 154.284 227.808 153.583 229.263 152.769C230.981 151.824 232.609 150.726 234.129 149.489C235.621 148.299 236.923 146.889 237.991 145.307C238.969 143.892 239.497 142.215 239.505 140.494C239.53 140.031 239.426 139.569 239.204 139.161C239.052 138.98 238.855 138.841 238.634 138.759C238.412 138.676 238.173 138.653 237.94 138.69C236.554 138.763 235.227 139.276 234.152 140.154C232.693 141.243 231.393 142.53 230.29 143.979C229.019 145.608 227.9 147.352 226.95 149.188C225.997 150.99 225.252 152.894 224.727 154.863Z" fill="#212121"/>
<path d="M185.18 165.708C183.558 166.631 181.848 167.391 180.076 167.978C180.076 167.978 176.674 169.113 175.682 168.023C175.294 167.922 174.915 167.792 174.548 167.632C174.145 167.45 173.981 167.325 173.878 167.286C172.909 166.871 171.043 171.712 168.094 174.697C167.006 175.787 164.783 178.045 161.999 177.659C160.507 177.375 159.17 176.556 158.239 175.355C156.691 173.431 156.475 171.133 156.339 169.68C155.92 165.288 157.473 161.821 158.239 160.033C159.617 156.912 161.414 154.676 164.42 150.953C165.202 149.977 165.872 149.194 166.32 148.683H168.219C167.328 149.745 166.533 150.885 165.843 152.088C165.316 153.002 164.862 154.018 163.944 156.061C163.206 157.701 162.668 158.898 162.044 160.6C161.674 161.528 161.355 162.475 161.091 163.438C160.551 165.278 160.389 167.208 160.615 169.113C160.704 170.239 161.073 171.326 161.687 172.274C161.99 172.711 162.364 173.094 162.792 173.409C163.458 173.681 164.185 173.769 164.896 173.664C166.098 173.466 166.858 172.728 168.219 171.394C168.525 171.099 169.353 169.998 171.015 167.808C171.718 166.871 172.109 166.321 172.013 165.714C171.871 164.811 171.208 164.896 170.079 163.086C169.461 162.034 168.975 160.909 168.633 159.738C168.064 158.006 167.695 156.214 167.533 154.398C167.431 153.291 167.431 152.44 167.431 152.179C167.388 150.102 167.691 148.033 168.327 146.056C168.817 144.34 169.707 142.764 170.924 141.459C171.305 141.075 171.734 140.741 172.2 140.466C173.061 139.969 174.041 139.713 175.035 139.728C175.865 139.74 176.682 139.942 177.423 140.319C178.163 140.696 178.807 141.237 179.305 141.902C180.371 143.411 180.394 145.165 180.394 147.338C180.389 150.25 179.891 153.14 178.92 155.885C177.122 160.896 174.434 163.801 175.188 164.925C175.54 165.441 176.697 165.708 177.071 165.793C177.424 165.865 177.783 165.905 178.143 165.912C181.069 165.912 185.169 163.449 185.169 163.449C187.726 161.894 189.002 161.123 190.272 159.477C191.288 158.061 192.145 156.539 192.83 154.937C193.476 153.575 193.89 152.497 194.406 151.14C194.973 149.682 195.676 147.701 196.408 145.289C196.238 144.574 196.096 143.962 195.983 143.491C195.848 142.986 195.751 142.472 195.693 141.953C195.659 141.445 195.674 140.936 195.739 140.432C195.739 140.256 195.812 139.961 195.898 139.615C196.064 138.791 196.413 138.015 196.918 137.345C197.291 136.807 197.831 136.407 198.455 136.21C199.147 136.028 200.241 136.107 200.496 136.777C200.752 137.447 200.213 138.264 199.986 138.48C199.862 138.594 199.745 138.715 199.634 138.843C199.578 138.907 199.524 138.976 199.476 139.047C199.231 139.387 199.057 139.773 198.965 140.182C198.864 140.745 198.864 141.322 198.965 141.885C199.204 143.071 201.557 144.921 202.033 145.289C203.015 146.1 204.039 146.858 205.101 147.559C208.333 149.353 210.205 148.558 210.726 149.829C211.049 150.607 210.477 151.22 208.679 154.937C207.488 157.4 208.016 156.577 206.122 160.612C204.562 163.949 204.211 164.493 203.57 166.287C202.914 167.911 202.566 169.643 202.543 171.394C202.548 172.362 202.721 173.323 203.054 174.232C203.236 174.881 203.591 175.469 204.08 175.934C204.664 176.375 205.394 176.578 206.122 176.502C208.237 176.405 210.131 174.799 211.225 173.664C212.524 172.359 214.52 170.055 217.213 164.584C218.245 162.473 218.994 160.691 219.482 159.477C219.666 160.604 219.666 161.754 219.482 162.882C219.306 163.92 219 164.715 216.646 168.557C216.646 168.557 213.346 173.925 210.913 176.309L210.789 176.428L210.715 176.502C209.394 177.744 206.711 180.27 203.559 179.907C201.058 179.611 199.425 177.637 198.954 177.069C197.904 175.75 197.2 174.19 196.907 172.529C196.368 169.856 196.907 167.694 197.417 165.719C198.571 161.837 200.365 158.176 202.725 154.886C202.841 154.72 202.947 154.548 203.043 154.369C203.339 153.847 203.515 153.266 203.559 152.667C203.479 151.532 201.234 151.435 199.464 149.829C198.491 148.897 197.784 147.722 197.417 146.424C196.754 149.046 196.062 151.225 195.489 152.871C194.355 156.151 193.697 157.865 192.246 159.783C191.361 160.926 190.351 161.965 189.235 162.882C187.98 163.956 186.622 164.903 185.18 165.708ZM172.495 163.137C173.874 160.695 175.024 158.13 175.931 155.476C176.798 153.048 177.26 150.495 177.298 147.917C177.298 146.01 177.06 144.608 176.595 143.718C176.13 142.827 175.529 142.384 174.814 142.384C173.708 142.384 172.58 143.343 171.412 145.25C170.244 147.157 169.677 149.568 169.677 152.463C169.68 154.411 169.916 156.353 170.38 158.245C170.768 160.001 171.485 161.667 172.495 163.154V163.137Z" fill="#212121"/>
</svg>
