<svg width="70" height="70" viewBox="0 0 70 70" fill="none" xmlns="http://www.w3.org/2000/svg">
<rect width="70" height="70" rx="35" fill="#C3F0CA"/>
<path d="M49.6875 20.2292C45.7916 16.3126 40.6041 14.1667 35.0833 14.1667C23.7083 14.1667 14.4375 23.4376 14.4375 34.8126C14.4375 38.4584 15.3958 42.0001 17.1875 45.1251L14.2708 55.8334L25.2083 52.9584C28.2291 54.6042 31.625 55.4792 35.0833 55.4792C46.4583 55.4792 55.7291 46.2084 55.7291 34.8334C55.7291 29.3126 53.5833 24.1251 49.6875 20.2292ZM35.0833 51.9792C32 51.9792 28.9791 51.1459 26.3333 49.5834L25.7083 49.2084L19.2083 50.9167L20.9375 44.5834L20.5208 43.9376C18.8125 41.2084 17.8958 38.0417 17.8958 34.8126C17.8958 25.3542 25.6041 17.6459 35.0625 17.6459C39.6458 17.6459 43.9583 19.4376 47.1875 22.6876C50.4375 25.9376 52.2083 30.2501 52.2083 34.8334C52.25 44.2917 44.5416 51.9792 35.0833 51.9792ZM44.5 39.1459C43.9791 38.8959 41.4375 37.6459 40.9791 37.4584C40.5 37.2917 40.1666 37.2084 39.8125 37.7084C39.4583 38.2292 38.4791 39.3959 38.1875 39.7292C37.8958 40.0834 37.5833 40.1251 37.0625 39.8542C36.5416 39.6042 34.875 39.0417 32.9166 37.2917C31.375 35.9167 30.3541 34.2292 30.0416 33.7084C29.75 33.1876 30 32.9167 30.2708 32.6459C30.5 32.4167 30.7916 32.0417 31.0416 31.7501C31.2916 31.4584 31.3958 31.2292 31.5625 30.8959C31.7291 30.5417 31.6458 30.2501 31.5208 30.0001C31.3958 29.7501 30.3541 27.2084 29.9375 26.1667C29.5208 25.1667 29.0833 25.2917 28.7708 25.2709C28.4583 25.2709 28.125 25.2709 27.7708 25.2709C27.4166 25.2709 26.875 25.3959 26.3958 25.9167C25.9375 26.4376 24.6041 27.6876 24.6041 30.2292C24.6041 32.7709 26.4583 35.2292 26.7083 35.5626C26.9583 35.9167 30.3541 41.1251 35.5208 43.3542C36.75 43.8959 37.7083 44.2084 38.4583 44.4376C39.6875 44.8334 40.8125 44.7709 41.7083 44.6459C42.7083 44.5001 44.7708 43.3959 45.1875 42.1876C45.625 40.9792 45.625 39.9584 45.4791 39.7292C45.3333 39.5001 45.0208 39.3959 44.5 39.1459Z" fill="#212121"/>
</svg>
