<svg width="59" height="54" viewBox="0 0 59 54" fill="none" xmlns="http://www.w3.org/2000/svg">
<g clip-path="url(#clip0_2314_315)">
<path d="M3.46845 33.2273C3.91624 31.1317 4.29193 29.0172 4.827 26.9443C5.4114 24.6788 6.1438 22.4473 6.81169 20.2007L6.954 19.7098C6.67804 19.672 6.4044 19.6191 6.13431 19.5512C5.95975 19.4984 5.65806 19.3492 5.66945 19.2907C5.71806 19.0419 5.82682 18.8087 5.98632 18.6111C6.03185 18.5582 6.34872 18.6545 6.47964 18.7564C7.00523 19.1737 7.14753 19.134 7.42835 18.5072C7.72624 17.8408 8.06778 17.1857 8.37705 16.5344C8.49469 16.2833 8.57628 16.0152 8.67874 15.7414C8.38026 15.675 8.08963 15.5776 7.81163 15.4507C7.72404 15.3961 7.64891 15.324 7.59107 15.2388C7.53322 15.1536 7.49395 15.0573 7.47578 14.9561C7.47578 14.8145 7.66552 14.5936 7.82301 14.5351C7.91195 14.5196 8.00316 14.5228 8.09076 14.5446C8.17835 14.5664 8.26037 14.6062 8.33152 14.6615C9.02028 15.1864 9.09048 15.1694 9.51171 14.4331C9.9557 13.644 10.4149 12.8605 10.8987 12.0921C11.1568 11.6843 11.041 11.5087 10.616 11.3766C10.396 11.3239 10.2026 11.1938 10.0714 11.0103C10.0183 10.8989 10.2745 10.4911 10.3333 10.5044C10.5921 10.5654 10.8352 10.6799 11.0467 10.8404C11.1549 10.9159 11.189 11.0953 11.3275 11.3634L13.2819 9.16394C13.3995 9.03179 13.5058 8.88831 13.6272 8.75804C14.2761 8.05385 14.2704 8.0614 13.5096 7.4365C13.4052 7.35154 13.3198 7.05892 13.3729 7.00606C13.5605 6.82979 13.7827 6.69415 14.0256 6.60771C14.0902 6.58505 14.2894 6.76063 14.3273 6.87579C14.3891 7.16047 14.4278 7.44962 14.4431 7.74045C15.0123 7.34022 15.4848 7.0306 15.9363 6.70021C16.5454 6.25467 17.1412 5.79401 17.7446 5.33903C18.3138 4.91047 18.3252 4.74056 17.8736 4.17418C17.7813 4.01573 17.7128 3.84461 17.6706 3.66634C17.8907 3.58704 18.1184 3.43601 18.3309 3.45489C18.4485 3.46433 18.6022 3.74752 18.6326 3.92687C18.735 4.54233 18.8489 4.59708 19.3915 4.32711C20.4674 3.80227 21.5565 3.30574 22.767 2.73748L22.1371 1.69913C22.194 1.63116 22.3022 1.38385 22.4729 1.32155C22.6437 1.25925 22.97 1.42916 22.9928 1.54054C23.036 1.92036 23.0442 2.30331 23.0175 2.68462C23.1366 2.69832 23.2569 2.69832 23.3761 2.68462C24.5335 2.37123 25.6814 2.01252 26.8502 1.74066C27.4954 1.59341 27.7477 1.36308 27.465 0.707975C27.4381 0.631848 27.43 0.550365 27.4416 0.47048C27.4532 0.390595 27.484 0.314679 27.5314 0.249212C27.6061 0.189351 27.6931 0.146634 27.7862 0.124115C27.8794 0.101596 27.9764 0.0998308 28.0703 0.118946C28.2012 0.171807 28.26 0.419124 28.3359 0.589036C28.3606 0.64001 28.3359 0.719302 28.3207 0.777828C28.2183 1.30833 28.4289 1.47636 28.9716 1.45181C30.2371 1.39706 31.5065 1.4065 32.7664 1.38007C33.0139 1.36161 33.2603 1.3301 33.5045 1.28568C33.3717 1.02326 33.2293 0.860896 33.218 0.689096C33.2047 0.481425 33.2369 0.175583 33.3717 0.0792997C33.4708 0.0240912 33.5817 -0.00676686 33.6952 -0.0107074C33.8088 -0.0146478 33.9216 0.0084432 34.0244 0.0566447C34.1344 0.12461 34.1306 0.462546 34.0927 0.664553C34.0172 0.933478 33.9175 1.19507 33.7948 1.44615L38.8001 2.64309C38.7813 2.31654 38.7864 1.98907 38.8153 1.66326C38.84 1.50279 39.0354 1.23093 39.1094 1.24414C39.3346 1.29421 39.5403 1.40834 39.7014 1.57264C39.747 1.61795 39.5914 1.88226 39.5117 2.0314C39.3883 2.24285 39.1322 2.44108 39.1322 2.64497C39.1322 2.78846 39.4453 2.95837 39.6445 3.06598C40.7393 3.65123 41.8531 4.19873 42.9422 4.80286C43.6006 5.16534 43.6234 5.16156 43.7771 4.41395C43.8093 4.25536 44.0712 4.00427 44.185 4.02504C44.4396 4.09161 44.6707 4.22685 44.8529 4.41584C44.8908 4.45171 44.7239 4.75944 44.5986 4.89537C44.4076 5.06193 44.2018 5.21105 43.9839 5.34092C44.4298 5.78458 44.813 6.1716 45.202 6.55107C45.7238 7.06458 46.238 7.58753 46.7826 8.0765C47.071 8.33326 47.4049 8.60134 47.606 7.94057C47.6743 7.7178 47.9324 7.56299 48.2113 7.24771C48.401 7.59886 48.5699 7.8424 48.6306 8.11049C48.6439 8.17279 48.2739 8.34459 48.0614 8.42388C47.6819 8.56547 47.5643 8.75804 47.8109 9.12241C48.4542 10.0664 49.1202 11.0103 49.7084 11.9996C50.3819 13.1323 50.9872 14.2953 51.621 15.445C51.7329 15.6508 51.8354 15.8604 51.9796 16.1398C52.193 15.8846 52.4211 15.642 52.6626 15.4129C52.7879 15.3053 53.099 15.1958 53.1256 15.2241C53.2833 15.4247 53.3913 15.6595 53.4406 15.9095C53.4557 16.0114 53.2338 16.2172 53.0877 16.2549C52.7793 16.3066 52.4668 16.3306 52.1541 16.3267C52.507 17.3688 52.8296 18.3203 53.1541 19.2699C53.1958 19.3945 53.2489 19.5173 53.2888 19.6475C53.543 20.4386 53.5867 20.4442 54.2489 19.9345C54.395 19.8231 54.7346 19.7174 54.7877 19.7797C54.953 19.9684 55.0517 20.2058 55.0686 20.4556C55.0686 20.5613 54.7744 20.7406 54.5961 20.7689C53.7404 20.903 53.7404 20.8879 53.9718 21.7658C54.2622 22.874 54.5411 23.9841 54.8428 25.0923C54.912 25.2987 54.9931 25.5011 55.0856 25.6983L56.2639 24.9658C56.3816 25.3434 56.6036 25.8607 56.5428 25.8946C56.1634 26.1136 55.7251 26.225 55.1748 26.4157C55.4101 27.7693 55.6681 29.2476 55.9433 30.8429C56.2114 30.7327 56.4865 30.64 56.7667 30.5653C56.9565 30.5276 57.2544 30.5087 57.3227 30.6069C57.3845 30.7034 57.4262 30.8113 57.4451 30.9242C57.464 31.0371 57.4598 31.1526 57.4327 31.2639C57.391 31.3979 57.1083 31.5395 56.9356 31.5376C56.0267 31.5282 56.0362 31.5131 56.1387 32.3966C56.2487 33.3406 56.3512 34.2845 56.429 35.2285C56.465 35.6797 56.6529 35.7684 57.0343 35.5777C57.1728 35.5079 57.3132 35.3757 57.4479 35.389C57.6559 35.3879 57.8575 35.4601 58.0171 35.5928C58.0692 35.6694 58.1012 35.7577 58.1102 35.8497C58.1191 35.9417 58.1047 36.0345 58.0684 36.1196C58.0051 36.2027 57.9249 36.2715 57.833 36.3216C57.7411 36.3717 57.6396 36.402 57.5352 36.4103C57.262 36.4103 56.9906 36.2838 56.6415 36.1913C56.6415 36.6746 56.6168 37.0862 56.6415 37.494C56.8028 39.8086 56.9773 42.1213 57.1481 44.4339C57.1588 44.6327 57.181 44.8306 57.2145 45.0268C57.2942 45.427 57.5238 45.5761 57.8748 45.3137C58.1651 45.0966 58.4649 44.8984 58.7419 45.2306C58.8596 45.3741 58.8463 45.8518 58.7799 45.8763C58.4727 45.9714 58.1529 46.0197 57.8312 46.0198C57.7135 46.0198 57.5902 45.9424 57.3151 45.8461C57.3872 47.1129 57.4536 48.2815 57.5238 49.5257C57.8426 49.5124 58.093 49.4898 58.3587 49.4936C58.5484 49.4936 58.907 49.4936 58.9279 49.5634C59.0189 49.8273 59.0262 50.1127 58.9488 50.3809C58.9108 50.4828 58.5161 50.4923 58.2904 50.4734C58.0493 50.4227 57.8146 50.3461 57.5902 50.2449V53.9755H54.634C54.6208 53.7281 54.5961 53.5148 54.598 53.3015C54.602 48.2108 54.2852 43.1248 53.6493 38.0736C53.1654 34.1524 52.6247 30.2104 51.6893 26.3779C50.3516 20.8917 48.0842 15.8056 43.8757 11.7674C40.7943 8.81279 37.1001 7.20806 32.8631 6.7965C28.5999 6.36262 24.3089 7.29669 20.6173 9.46223C16.6156 11.7749 13.705 15.1033 11.5875 19.168C9.98054 22.2002 8.74656 25.4139 7.91219 28.7397C6.81397 33.092 5.97387 37.5047 5.39622 41.9551C4.99587 45.2023 4.77387 48.4703 4.47408 51.7307C4.42095 52.3235 4.40767 52.9239 4.3147 53.511C4.2864 53.6101 4.23378 53.7007 4.16158 53.7745C4.08937 53.8483 3.99984 53.9031 3.90106 53.9339C3.19143 53.9849 2.478 53.9585 1.76647 53.9774C1.38699 53.9887 1.30161 53.7886 1.33007 53.4789C1.3794 52.973 1.44771 52.467 1.47617 51.9686C1.47577 51.6363 1.45804 51.3042 1.42304 50.9737C1.09858 51.1625 0.903151 51.3513 0.690641 51.3777C0.576443 51.3909 0.460735 51.3783 0.352041 51.3411C0.243346 51.3038 0.144436 51.2428 0.0625978 51.1625C0.0151364 51.059 -0.00556017 50.9454 0.00239355 50.832C0.0103473 50.7186 0.0466984 50.6089 0.108136 50.513C0.204904 50.3979 0.55213 50.3903 0.736179 50.4639C1.46099 50.7509 1.58432 50.6697 1.66022 49.7692C1.84996 47.4773 1.99606 45.1797 2.2598 42.8953C2.60892 39.8652 3.05482 36.8445 3.45517 33.8201C3.47984 33.6313 3.47414 33.4236 3.48363 33.2254L3.46845 33.2273Z" fill="#FFD9E1"/>
<path d="M47.6971 25.9211C47.4635 26.111 47.2488 26.3228 47.0557 26.5535C47.0254 26.5969 47.2777 26.9575 47.3821 26.95C47.5586 26.9367 47.7198 26.7442 47.9399 26.5931C48.2891 27.7731 48.6989 28.9606 48.9873 30.1802C49.5736 32.7628 50.1997 35.3436 50.6001 37.9565C51.1029 41.2283 51.4122 44.5302 51.7727 47.8227C51.9624 49.6219 52.0801 51.4324 52.2679 53.2335C52.3248 53.7867 52.175 54.0038 51.6057 53.9887C50.4521 53.9641 49.2966 53.9887 48.0234 53.9887L47.6155 49.6465L47.7919 49.7144L48.401 49.1481L47.5718 48.7497C47.3821 46.8335 47.1924 44.7266 46.9533 42.6234C46.5404 38.975 45.8869 35.3575 44.997 31.7944C44.1622 28.3961 42.9744 25.164 41.1434 22.166C39.6501 19.7306 37.9311 17.5028 35.4948 15.8962C33.3337 14.4727 30.9771 14.1688 28.4744 14.4878C25.818 14.8258 23.7024 16.187 21.767 17.9087C19.0234 20.363 17.2322 23.4215 15.8718 26.7819C14.2552 30.773 13.1661 34.9264 12.3787 39.1308C11.6994 42.7763 11.2535 46.4672 10.7488 50.1449C10.6217 51.0605 10.6748 52.0007 10.6273 52.9277C10.5799 53.8546 10.3902 53.9943 9.487 53.9943C8.70906 53.9943 7.93113 53.9943 7.15129 53.9943C6.61053 53.9943 6.39233 53.8055 6.37335 53.2033C6.25951 48.6723 7.03365 44.2508 7.89128 39.8444C8.54589 36.5066 9.34849 33.1914 10.2308 29.9045C11.2611 26.0645 12.7449 22.3925 15.0085 19.0849C17.3423 15.6867 20.215 12.817 24.0914 11.218C27.384 9.82472 31.0692 9.65059 34.4797 10.7271C37.9216 11.7806 40.466 14.0178 42.667 16.7326C44.491 19.0211 45.9566 21.5709 47.014 24.2956C47.2455 24.8714 47.4921 25.434 47.6971 25.9211ZM24.2697 13.3683L23.7536 13.8214C23.9301 13.98 24.0876 14.2292 24.2868 14.267C24.4234 14.2934 24.6189 14.0291 24.7877 13.8894L24.2697 13.3683ZM9.88356 36.2479L10.3598 35.6816C10.1719 35.535 9.96901 35.4084 9.75454 35.304C9.7052 35.2832 9.45475 35.5381 9.47752 35.6174C9.52875 35.8024 9.68813 35.9591 9.88356 36.2479ZM40.2934 18.0938C40.0486 17.9408 39.8627 17.7464 39.7678 17.7841C39.578 17.8559 39.4433 18.056 39.2839 18.2051C39.4433 18.3297 39.6046 18.5525 39.7621 18.5525C39.9196 18.5525 40.0562 18.3128 40.2934 18.0938ZM48.6609 52.1782C48.864 51.8874 49.0404 51.7345 49.067 51.5627C49.0841 51.4211 48.9133 51.2569 48.8241 51.102C48.6534 51.2436 48.4124 51.3569 48.3384 51.5382C48.291 51.6514 48.494 51.8667 48.6609 52.1782ZM24.9718 11.3539L24.7099 11.2746C24.3722 11.3879 24.0971 11.5654 24.2906 11.9807C24.338 12.0808 24.5676 12.0977 24.7137 12.1525L24.9718 11.3539ZM17.3347 19.3926C17.0956 19.2039 16.9305 18.9905 16.8679 19.0151C16.6631 19.1304 16.4722 19.2684 16.2987 19.4266C16.4126 19.5342 16.5397 19.74 16.6327 19.7249C16.83 19.6985 17.014 19.555 17.3347 19.3926ZM48.4826 43.1332C48.2929 43.3408 48.0879 43.5013 48.1145 43.5655C48.2174 43.7556 48.345 43.9314 48.494 44.0884C48.6059 43.9431 48.7938 43.8071 48.807 43.6542C48.8203 43.5013 48.6439 43.371 48.4826 43.1332ZM50.2358 41.3189C50.0821 41.7153 49.9493 41.9155 49.9493 42.1175C49.9493 42.2364 50.1542 42.3572 50.2681 42.4781C50.3882 42.2954 50.4827 42.0972 50.5489 41.889C50.5697 41.7776 50.4161 41.6342 50.2358 41.3189ZM40.3161 15.3355C40.0809 15.1467 39.9367 14.9579 39.8076 14.9579C39.6786 14.9579 39.5211 15.1562 39.3788 15.2676C39.5097 15.4129 39.6217 15.6263 39.783 15.6772C39.8873 15.7131 40.0676 15.5054 40.3161 15.3355ZM8.09999 48.8479C7.87231 48.7006 7.72051 48.5213 7.62374 48.5515C7.4513 48.6473 7.29664 48.7718 7.16647 48.9196C7.28221 49.048 7.434 49.2972 7.5118 49.2783C7.69205 49.2311 7.83815 49.0537 8.09999 48.8479ZM7.97856 53.4487C7.74138 53.2259 7.5858 52.9767 7.45488 52.9881C7.32395 52.9994 7.11714 53.2259 7.05642 53.3978C7.02606 53.4827 7.24616 53.764 7.35052 53.7602C7.52887 53.7565 7.69964 53.5979 7.97856 53.4487ZM48.1942 34.6243C48.3812 34.4176 48.5483 34.1939 48.6932 33.956C48.716 33.9069 48.4655 33.6407 48.4105 33.6615C48.2202 33.7181 48.057 33.8416 47.9513 34.0089C47.9001 34.1184 48.0614 34.3223 48.1942 34.6243ZM16.7465 23.0325C16.9476 22.7456 17.1013 22.5945 17.1563 22.4114C17.1753 22.3472 16.8926 22.1037 16.8584 22.1245C16.6886 22.2179 16.5496 22.3582 16.4581 22.5285C16.4239 22.6078 16.5947 22.7777 16.7465 23.0325ZM12.7619 29.4949L12.5361 29.8007C12.7093 29.9517 12.8953 30.0876 13.0921 30.2066C13.1167 30.2198 13.2818 29.9857 13.3805 29.8668L12.7619 29.4949ZM11.3844 28.2828L11.669 28.5113L12.2212 27.9449C12.1012 27.8485 11.9743 27.7608 11.8417 27.6825C11.6767 27.8728 11.524 28.0733 11.3844 28.2828ZM20.1125 18.2335L20.2358 18.611C20.4787 18.5318 20.7235 18.4581 20.9569 18.3562C20.9256 18.228 20.8863 18.1019 20.8392 17.9786L20.1125 18.2335ZM30.3794 13.0587L30.1555 13.3249L30.7039 13.8441C30.7741 13.7138 30.9372 13.5042 30.8936 13.4665C30.7369 13.3115 30.5632 13.1747 30.3756 13.0587H30.3794ZM10.3693 49.7616C10.0923 49.6314 9.91961 49.4803 9.81905 49.52C9.65018 49.5823 9.52685 49.7654 9.38454 49.8976C9.50218 49.9957 9.64638 50.1959 9.73367 50.1732C9.91771 50.1279 10.0733 49.9655 10.3693 49.7616ZM37.1114 12.649L36.8458 12.9095L37.396 13.5514C37.4909 13.4495 37.6787 13.2758 37.6636 13.2569C37.4906 13.0446 37.3063 12.8416 37.1114 12.649ZM47.9874 36.6784C47.7976 36.9786 47.6458 37.1353 47.6079 37.3184C47.5927 37.392 47.8754 37.6261 47.9248 37.5997C48.0858 37.5218 48.2122 37.3873 48.2796 37.2221C48.3061 37.1013 48.143 36.9427 47.9874 36.6708V36.6784ZM31.5482 11.3105C31.7023 11.1366 31.8371 10.9467 31.9504 10.7441C31.9694 10.695 31.719 10.4647 31.681 10.4855C31.5025 10.5779 31.3454 10.7065 31.2199 10.863C31.1953 10.8989 31.3812 11.0896 31.5482 11.3105ZM49.3118 31.8113C49.27 31.6981 49.2302 31.5848 49.1903 31.4715L48.4617 31.6433C48.5054 31.8 48.5509 31.9567 48.5964 32.1134L49.3118 31.8113ZM14.4203 25.6756L14.6897 25.8285C14.7637 25.653 14.8946 25.4774 14.8908 25.3056C14.8908 25.1867 14.7011 25.0715 14.5929 24.9563C14.4465 25.086 14.3131 25.2296 14.1945 25.3849C14.1736 25.4208 14.3425 25.5756 14.4203 25.6756ZM9.81905 46.1198L9.54013 45.8612C9.37612 46.0259 9.22396 46.202 9.08475 46.3879C9.06767 46.4125 9.25172 46.5767 9.3428 46.6673L9.81905 46.1198ZM28.0683 10.9499C27.7686 10.8102 27.6092 10.6724 27.4991 10.6988C27.3492 10.7347 27.2316 10.9065 27.1007 11.0197C27.2259 11.1141 27.353 11.2859 27.4802 11.2822C27.6206 11.2671 27.7686 11.116 28.0683 10.9499ZM50.8506 48.5779L50.5982 48.6308C50.6456 48.8441 50.6456 49.0914 50.7633 49.2576C50.8221 49.3406 51.0953 49.2727 51.4407 49.2727L50.8506 48.5779ZM45.0616 25.2546C44.794 25.1036 44.6327 24.9412 44.5246 24.9695C44.369 25.0111 44.2514 25.1942 44.1185 25.3188C44.2684 25.4132 44.4126 25.5661 44.572 25.5831C44.6859 25.5944 44.8206 25.4245 45.0616 25.2546ZM50.564 38.2529C50.3933 38.1189 50.2377 37.9527 50.2016 37.9754C50.0435 38.059 49.917 38.1915 49.8411 38.353C49.8165 38.4323 50.0309 38.5814 50.1352 38.7003L50.564 38.2529ZM9.54013 42.2175L9.38644 41.9438L9.02214 41.6511C8.91209 41.7871 8.72804 41.9155 8.71665 42.0589C8.73124 42.1385 8.76663 42.2128 8.81926 42.2745C8.87188 42.3361 8.93989 42.3829 9.01644 42.4101C9.17583 42.4233 9.35608 42.2893 9.53254 42.2156L9.54013 42.2175ZM47.0956 30.7956C46.8584 30.6484 46.7161 30.486 46.5909 30.5049C46.5168 30.5313 46.4508 30.5763 46.3992 30.6355C46.3477 30.6947 46.3124 30.7661 46.2968 30.8428C46.2968 30.9637 46.5093 31.2015 46.5738 31.1846C46.7256 31.1506 46.8527 30.9825 47.088 30.7938L47.0956 30.7956ZM8.11328 43.9582C7.95959 44.2149 7.804 44.3584 7.80779 44.5C7.80779 44.6038 8.06015 44.8096 8.12656 44.7832C8.20587 44.7495 8.27722 44.6997 8.33604 44.6369C8.39486 44.5742 8.43984 44.4999 8.46809 44.4188C8.49086 44.3301 8.29733 44.1772 8.11328 43.9582ZM36.4075 14.805L36.0508 15.2581C36.1741 15.3544 36.2955 15.5205 36.4302 15.5281C36.565 15.5356 36.7509 15.3525 36.749 15.2581C36.73 15.1316 36.565 15.0089 36.4075 14.805ZM10.4831 32.6288L10.5837 32.9195L11.2687 32.7515L11.1245 32.306L10.4831 32.6288ZM19.3535 16.8024C19.0822 16.6136 18.9266 16.4475 18.8393 16.4758C18.68 16.5287 18.5623 16.7024 18.4295 16.8251C18.532 16.9157 18.6401 17.0837 18.7407 17.0799C18.8925 17.0781 19.0424 16.9553 19.3535 16.8024Z" fill="#FFD9E1"/>
<path d="M46.255 53.9944C45.3557 53.9944 44.4942 54.0208 43.6347 53.9698C43.4943 53.9604 43.2799 53.6224 43.2552 53.4204C43.0655 51.4155 42.8947 49.4086 42.7316 47.4018C42.3255 42.4498 41.6102 37.5544 40.0353 32.8176C38.9595 29.5817 37.5687 26.5026 35.2766 23.918C34.5479 23.1148 33.7153 22.4114 32.8005 21.8262C30.9126 20.5934 28.3321 20.8822 26.2374 22.3926C23.4747 24.3843 21.5583 27.0236 20.1903 30.0858C18.8735 33.0347 18.0842 36.146 17.4903 39.3007C16.9097 42.3868 16.3999 45.4849 15.961 48.5949C15.7352 50.1902 15.7048 51.8138 15.6194 53.4261C15.5986 53.8509 15.4828 54.0113 15.035 53.9925C14.24 53.9585 13.4412 53.983 12.5494 53.983C12.5836 53.326 12.5817 52.7389 12.6519 52.1593C13.0617 48.7101 13.4412 45.2571 13.9251 41.8192C14.5076 37.6658 15.4544 33.603 17.0748 29.7101C18.5927 26.0513 20.7045 22.8041 23.8732 20.3517C26.448 18.3581 29.351 17.5822 32.6013 18.3902C34.4569 18.8527 35.8591 20.0006 37.1019 21.3486C39.3693 23.8028 40.9404 26.6932 42.1623 29.7875C43.6517 33.6054 44.6464 37.5965 45.1223 41.6644C45.5018 44.804 45.7124 47.9662 45.997 51.1172C46.0767 52.0309 46.1602 52.9503 46.255 53.9944Z" fill="#FFD9E1"/>
<path d="M18.1165 53.9698C18.1165 53.4223 18.1032 52.9447 18.1165 52.4595C18.293 47.0695 18.9646 41.7418 20.3441 36.5236C21.2301 33.1801 22.6513 30.1047 25.4215 27.8392C26.5372 26.9235 27.7819 26.225 29.2543 26.1249C31.7475 25.9569 33.681 27.016 35.1856 28.9379C36.9369 31.1713 38.0317 33.72 38.8059 36.4216C40.0487 40.745 40.4357 45.1967 40.8076 49.6502C40.9253 51.0586 41.0258 52.467 41.1397 53.9434C40.8759 53.9622 40.6388 53.9698 40.4035 53.9943C39.9823 54.0378 39.8077 53.8584 39.7811 53.428C39.6635 51.574 39.5743 49.7163 39.3789 47.8699C39.1189 45.3854 38.9273 42.8783 38.4207 40.441C37.6428 36.6897 36.6371 32.9686 34.1477 29.9008C33.4821 29.0779 32.6697 28.3841 31.7513 27.8543C29.9298 26.8272 28.2259 27.4314 26.6643 28.5868C24.5962 30.1179 23.285 32.1852 22.3895 34.5526C21.1258 37.8904 20.4655 41.3623 20.1126 44.8908C19.8223 47.7472 19.642 50.615 19.4295 53.4789C19.4048 53.798 19.3365 53.9868 18.976 53.9679C18.6876 53.9585 18.4049 53.9698 18.1165 53.9698Z" fill="#FFD9E1"/>
<path d="M1.67731 46.0651C1.26557 46.4993 0.918345 46.8203 0.425018 46.454C0.0664071 46.1935 0.259943 45.8876 0.48953 45.68C1.06255 45.1608 1.23711 45.865 1.67731 46.0651Z" fill="#FFD9E1"/>
<path d="M58.8197 41.3132C58.5123 41.519 58.2505 41.8041 58.1253 41.7531C57.8957 41.6568 57.7458 41.3755 57.556 41.1584C57.761 40.9923 57.9697 40.6959 58.1727 40.6978C58.3757 40.6997 58.5427 41.03 58.8197 41.3132Z" fill="#FFD9E1"/>
<path d="M3.48369 33.2273C3.12887 33.3198 2.77785 33.4369 2.41544 33.4954C2.31678 33.5105 2.09668 33.3595 2.09288 33.2802C2.08241 33.0486 2.12865 32.8179 2.2276 32.6081C2.26745 32.5288 2.57103 32.4872 2.6678 32.5533C2.94786 32.762 3.21524 32.9871 3.46851 33.2273H3.48369Z" fill="#FFD9E1"/>
<path d="M50.3668 12.1034C50.6989 11.8183 50.9588 11.4917 51.0556 11.537C51.3003 11.6409 51.473 11.9146 51.6741 12.1204C51.4408 12.2639 51.2207 12.4621 50.9683 12.5263C50.8507 12.5546 50.6609 12.3224 50.3668 12.1034Z" fill="#FFD9E1"/>
<path d="M2.40973 37.5204C2.10994 37.7904 1.87656 38.1094 1.7684 38.0717C1.52743 37.9905 1.35097 37.7281 1.14795 37.5393C1.32441 37.3505 1.48569 37.0541 1.68302 37.0295C1.88035 37.005 2.08717 37.2863 2.40973 37.5204Z" fill="#FFD9E1"/>
<path d="M5.36014 23.9161L4.08508 24.1049C4.17806 23.7273 4.15339 23.2987 4.33744 23.1741C4.97307 22.7494 4.9522 23.6537 5.38671 23.7028L5.36014 23.9161Z" fill="#FFD9E1"/>
<path d="M4.08705 28.2356C3.76259 28.4584 3.56906 28.6812 3.35275 28.7076C3.22752 28.7208 2.92773 28.3886 2.95429 28.2583C2.99414 28.0582 3.23511 27.7674 3.40588 27.7561C3.57664 27.7448 3.79485 28.0129 4.08705 28.2356Z" fill="#FFD9E1"/>
<path d="M1.25416 42.6386C1.0037 42.327 0.741857 42.1364 0.770318 42.0061C0.817753 41.7796 1.04544 41.5889 1.19724 41.385C1.35282 41.5738 1.57672 41.7418 1.63933 41.9514C1.67349 42.1005 1.45528 42.3025 1.25416 42.6386Z" fill="#FFD9E1"/>
<path d="M24.2698 13.3683L24.7878 13.8932C24.6189 14.0291 24.4234 14.2934 24.2868 14.2707C24.0971 14.233 23.9301 13.9838 23.7537 13.8252L24.2698 13.3683Z" fill="#B85173"/>
<path d="M9.88358 36.248C9.69384 35.9667 9.52876 35.81 9.47753 35.6231C9.45476 35.5438 9.70522 35.2889 9.75456 35.3097C9.96903 35.4141 10.1719 35.5407 10.3598 35.6873L9.88358 36.248Z" fill="#B85173"/>
<path d="M40.2934 18.0938C40.0562 18.3109 39.9139 18.5506 39.7621 18.5525C39.6103 18.5544 39.4433 18.3298 39.2839 18.2052C39.4433 18.056 39.5799 17.8559 39.7678 17.7841C39.8626 17.7464 40.0486 17.9352 40.2934 18.0938Z" fill="#B85173"/>
<path d="M48.661 52.1782C48.494 51.8667 48.291 51.6514 48.3384 51.5382C48.4124 51.3494 48.6534 51.2436 48.8242 51.1021C48.9133 51.2569 49.0841 51.4211 49.067 51.5627C49.0462 51.7288 48.864 51.8874 48.661 52.1782Z" fill="#B85173"/>
<path d="M24.9718 11.3539L24.7137 12.1525C24.5676 12.0978 24.3342 12.0808 24.2906 11.9807C24.1008 11.5654 24.3722 11.3879 24.7099 11.2746L24.9718 11.3539Z" fill="#B85173"/>
<path d="M17.3347 19.3927C17.014 19.555 16.83 19.6985 16.6289 19.7287C16.5359 19.7438 16.4088 19.5399 16.2949 19.4304C16.4684 19.2722 16.6593 19.1341 16.8641 19.0189C16.9306 18.9905 17.0956 19.1944 17.3347 19.3927Z" fill="#B85173"/>
<path d="M48.4827 43.1332C48.644 43.3711 48.8299 43.5221 48.8166 43.6542C48.8033 43.7864 48.6155 43.9431 48.5035 44.0885C48.3546 43.9314 48.227 43.7556 48.1241 43.5655C48.088 43.5013 48.2986 43.3408 48.4827 43.1332Z" fill="#B85173"/>
<path d="M50.2359 41.3189C50.4161 41.6342 50.5698 41.7776 50.5489 41.8853C50.4828 42.0934 50.3883 42.2916 50.2681 42.4743C50.1543 42.3535 49.9475 42.2326 49.9494 42.1137C49.9494 41.9117 50.0917 41.7229 50.2359 41.3189Z" fill="#B85173"/>
<path d="M40.3162 15.3355C40.0677 15.5054 39.8874 15.7131 39.7831 15.6791C39.6218 15.6282 39.5098 15.4148 39.3789 15.2695C39.5212 15.1581 39.6597 14.9674 39.8077 14.9598C39.9557 14.9523 40.0809 15.1524 40.3162 15.3355Z" fill="#B85173"/>
<path d="M8.10003 48.8479C7.83819 49.0537 7.69209 49.2255 7.51183 49.2783C7.43404 49.2991 7.28225 49.048 7.1665 48.9196C7.29667 48.7718 7.45134 48.6473 7.62378 48.5515C7.71106 48.5194 7.87234 48.7082 8.10003 48.8479Z" fill="#B85173"/>
<path d="M7.97856 53.4488C7.69964 53.5979 7.52887 53.7565 7.35051 53.7603C7.24805 53.7603 7.02606 53.4827 7.05641 53.3978C7.11713 53.226 7.30308 52.9994 7.45487 52.9881C7.60666 52.9768 7.74138 53.226 7.97856 53.4488Z" fill="#B85173"/>
<path d="M48.1942 34.6244C48.0652 34.3223 47.9039 34.1184 47.9514 34.0089C48.0571 33.8416 48.2202 33.7181 48.4105 33.6615C48.4655 33.6408 48.716 33.907 48.6932 33.956C48.5483 34.1939 48.3813 34.4177 48.1942 34.6244Z" fill="#B85173"/>
<path d="M16.7466 23.0326C16.5948 22.7796 16.424 22.6097 16.4581 22.5285C16.5496 22.3582 16.6887 22.2179 16.8585 22.1245C16.8927 22.1037 17.1754 22.3473 17.1564 22.4114C17.1014 22.5927 16.9477 22.7437 16.7466 23.0326Z" fill="#B85173"/>
<path d="M12.7657 29.493L13.371 29.8706C13.2704 29.9895 13.1072 30.2236 13.0826 30.2104C12.8904 30.0907 12.7089 29.9549 12.5399 29.8045L12.7657 29.493Z" fill="#B85173"/>
<path d="M11.3844 28.2828C11.5251 28.072 11.6791 27.8702 11.8455 27.6787C11.9781 27.757 12.105 27.8447 12.225 27.9411L11.6728 28.5075L11.3844 28.2828Z" fill="#B85173"/>
<path d="M20.1125 18.2335L20.8393 17.9767C20.8864 18.1 20.9257 18.2261 20.9569 18.3543C20.7235 18.4562 20.4787 18.5299 20.2359 18.6092L20.1125 18.2335Z" fill="#B85173"/>
<path d="M30.3756 13.0587C30.5643 13.1734 30.7394 13.3089 30.8974 13.4627C30.9334 13.5043 30.7703 13.7138 30.7077 13.8403L30.1593 13.3211L30.3756 13.0587Z" fill="#B85173"/>
<path d="M10.3693 49.7616C10.0733 49.9655 9.91769 50.1279 9.73365 50.1751C9.64636 50.1977 9.50216 49.9976 9.38452 49.8995C9.52683 49.7654 9.65016 49.5823 9.81903 49.5219C9.91959 49.4803 10.0923 49.6314 10.3693 49.7616Z" fill="#B85173"/>
<path d="M37.1115 12.649C37.3064 12.8416 37.4907 13.0446 37.6636 13.2569C37.6788 13.2758 37.4909 13.4457 37.3961 13.5514L36.8458 12.9095L37.1115 12.649Z" fill="#B85173"/>
<path d="M47.9874 36.6708C48.143 36.9427 48.3061 37.1013 48.2758 37.207C48.2085 37.3722 48.0821 37.5067 47.921 37.5846C47.8716 37.611 47.5889 37.3769 47.6041 37.3033C47.6458 37.1277 47.7957 36.971 47.9874 36.6708Z" fill="#B85173"/>
<path d="M31.5482 11.3105C31.3813 11.0896 31.1953 10.8989 31.22 10.8668C31.3455 10.7103 31.5025 10.5817 31.6811 10.4893C31.719 10.4685 31.9695 10.6988 31.9505 10.7479C31.837 10.9492 31.7021 11.1378 31.5482 11.3105Z" fill="#B85173"/>
<path d="M49.3118 31.8114L48.5965 32.1134C48.551 31.9567 48.5054 31.8 48.4618 31.6433L49.1904 31.4715C49.2302 31.5848 49.2701 31.6981 49.3118 31.8114Z" fill="#B85173"/>
<path d="M14.4203 25.6756C14.3406 25.5756 14.1717 25.4208 14.1945 25.3849C14.3131 25.2296 14.4465 25.086 14.5929 24.9563C14.6992 25.0715 14.8889 25.1867 14.8908 25.3056C14.8908 25.4774 14.7637 25.653 14.6897 25.8285L14.4203 25.6756Z" fill="#B85173"/>
<path d="M9.81903 46.1198L9.34278 46.6673C9.2517 46.5711 9.06765 46.4125 9.08473 46.3879C9.22394 46.202 9.3761 46.026 9.54011 45.8612L9.81903 46.1198Z" fill="#B85173"/>
<path d="M28.0684 10.9499C27.7686 11.1255 27.6206 11.2765 27.4669 11.2822C27.3455 11.2822 27.2183 11.1141 27.0874 11.0197C27.2183 10.9065 27.336 10.7347 27.4859 10.6988C27.6092 10.6629 27.7686 10.8008 28.0684 10.9499Z" fill="#B85173"/>
<path d="M50.8506 48.5779L51.4407 49.2727C51.0954 49.2727 50.8222 49.3406 50.7633 49.2576C50.6457 49.0914 50.6457 48.8441 50.5983 48.6308L50.8506 48.5779Z" fill="#B85173"/>
<path d="M45.0615 25.2546C44.8206 25.4245 44.6821 25.5945 44.572 25.5831C44.4126 25.5661 44.2684 25.4132 44.1185 25.3188C44.2513 25.1942 44.369 25.0111 44.5246 24.9696C44.6327 24.9412 44.794 25.1093 45.0615 25.2546Z" fill="#B85173"/>
<path d="M50.5566 38.2529L50.1277 38.7022C50.0215 38.5833 49.809 38.4342 49.8336 38.3549C49.9095 38.1934 50.036 38.0609 50.1941 37.9773C50.2302 37.9471 50.3858 38.1189 50.5566 38.2529Z" fill="#B85173"/>
<path d="M9.53258 42.2157C9.35612 42.2874 9.17587 42.4233 9.0089 42.4045C8.93234 42.3773 8.86433 42.3305 8.81171 42.2688C8.75908 42.2072 8.7237 42.1329 8.70911 42.0533C8.72049 41.9098 8.89885 41.7814 9.01459 41.6455L9.37889 41.9381L9.53258 42.2157Z" fill="#B85173"/>
<path d="M47.088 30.7938C46.8527 30.9826 46.7256 31.1411 46.5662 31.1827C46.5017 31.1997 46.2873 30.9618 46.2892 30.841C46.3048 30.7642 46.3401 30.6928 46.3917 30.6336C46.4432 30.5744 46.5092 30.5294 46.5833 30.503C46.7028 30.4842 46.8508 30.6465 47.088 30.7938Z" fill="#B85173"/>
<path d="M8.11329 43.9582C8.30303 44.1847 8.49277 44.3358 8.4681 44.4188C8.43985 44.4999 8.39487 44.5742 8.33605 44.637C8.27723 44.6997 8.20588 44.7495 8.12657 44.7832C8.06016 44.8096 7.8097 44.5944 7.8078 44.5C7.80401 44.366 7.96908 44.2149 8.11329 43.9582Z" fill="#B85173"/>
<path d="M36.4075 14.805C36.565 15.0089 36.7301 15.1316 36.7339 15.2581C36.7339 15.3525 36.5233 15.5338 36.4151 15.5281C36.307 15.5224 36.1647 15.3544 36.0356 15.2581L36.4075 14.805Z" fill="#B85173"/>
<path d="M10.4832 32.6288L11.1245 32.306L11.2687 32.7515L10.5837 32.9196L10.4832 32.6288Z" fill="#B85173"/>
<path d="M19.3536 16.8024C19.0443 16.9516 18.8944 17.0743 18.7407 17.08C18.6402 17.08 18.532 16.9157 18.4296 16.8251C18.5624 16.7024 18.68 16.5287 18.8394 16.4758C18.9248 16.4513 19.0804 16.625 19.3536 16.8024Z" fill="#B85173"/>
</g>
<defs>
<clipPath id="clip0_2314_315">
<rect width="59" height="54" fill="white"/>
</clipPath>
</defs>
</svg>
