<svg width="56" height="56" viewBox="0 0 56 56" fill="none" xmlns="http://www.w3.org/2000/svg">
<path d="M14 46.6667C12.0556 46.6667 10.4028 45.9861 9.04171 44.625C7.6806 43.2639 7.00004 41.6111 7.00004 39.6667H4.66671C4.0056 39.6667 3.45143 39.4431 3.00421 38.9959C2.55699 38.5487 2.33337 37.9945 2.33337 37.3334V14C2.33337 12.7167 2.79032 11.6181 3.70421 10.7042C4.6181 9.79032 5.71671 9.33337 7.00004 9.33337H35C36.2834 9.33337 37.382 9.79032 38.2959 10.7042C39.2098 11.6181 39.6667 12.7167 39.6667 14V18.6667H44.3334C45.0723 18.6667 45.7723 18.832 46.4334 19.1625C47.0945 19.4931 47.6389 19.95 48.0667 20.5334L53.2 27.3584C53.3556 27.5528 53.4723 27.7667 53.55 28C53.6278 28.2334 53.6667 28.4862 53.6667 28.7584V37.3334C53.6667 37.9945 53.4431 38.5487 52.9959 38.9959C52.5487 39.4431 51.9945 39.6667 51.3334 39.6667H49C49 41.6111 48.3195 43.2639 46.9584 44.625C45.5973 45.9861 43.9445 46.6667 42 46.6667C40.0556 46.6667 38.4028 45.9861 37.0417 44.625C35.6806 43.2639 35 41.6111 35 39.6667H21C21 41.6111 20.3195 43.2639 18.9584 44.625C17.5973 45.9861 15.9445 46.6667 14 46.6667ZM14 42C14.6612 42 15.2153 41.7764 15.6625 41.3292C16.1098 40.882 16.3334 40.3278 16.3334 39.6667C16.3334 39.0056 16.1098 38.4514 15.6625 38.0042C15.2153 37.557 14.6612 37.3334 14 37.3334C13.3389 37.3334 12.7848 37.557 12.3375 38.0042C11.8903 38.4514 11.6667 39.0056 11.6667 39.6667C11.6667 40.3278 11.8903 40.882 12.3375 41.3292C12.7848 41.7764 13.3389 42 14 42ZM7.00004 35H8.86671C9.52782 34.3 10.2862 33.7362 11.1417 33.3084C11.9973 32.8806 12.95 32.6667 14 32.6667C15.05 32.6667 16.0028 32.8806 16.8584 33.3084C17.7139 33.7362 18.4723 34.3 19.1334 35H35V14H7.00004V35ZM42 42C42.6612 42 43.2153 41.7764 43.6625 41.3292C44.1098 40.882 44.3334 40.3278 44.3334 39.6667C44.3334 39.0056 44.1098 38.4514 43.6625 38.0042C43.2153 37.557 42.6612 37.3334 42 37.3334C41.3389 37.3334 40.7848 37.557 40.3375 38.0042C39.8903 38.4514 39.6667 39.0056 39.6667 39.6667C39.6667 40.3278 39.8903 40.882 40.3375 41.3292C40.7848 41.7764 41.3389 42 42 42ZM39.6667 30.3334H49.5834L44.3334 23.3334H39.6667V30.3334Z" fill="#201A1B"/>
</svg>
